<svg width="76" height="49" viewBox="0 0 76 49" fill="none" xmlns="http://www.w3.org/2000/svg">
<path d="M7.44592 42.882H8.04897C8.08614 43.037 8.12332 43.2248 8.16049 43.441C8.19353 43.6573 8.22245 43.8899 8.24723 44.1389C8.27201 44.3837 8.28853 44.6286 8.29679 44.8735C8.30505 45.1142 8.31332 45.3346 8.31332 45.5264C7.97049 45.7386 7.54092 45.8896 7.02875 45.9753C6.51658 46.061 5.98788 46.1059 5.45092 46.1059C4.63723 46.1059 3.90201 46.008 3.24114 45.808C2.58027 45.608 2.01853 45.2938 1.55179 44.8653C1.08505 44.4368 0.725707 43.8899 0.47375 43.2248C0.217663 42.5636 0.09375 41.7679 0.09375 40.8374C0.09375 39.907 0.234185 39.1275 0.510924 38.4664C0.791794 37.8053 1.16353 37.2584 1.6344 36.834C2.10527 36.4096 2.65049 36.0954 3.27005 35.8995C3.88962 35.6995 4.54636 35.6016 5.23201 35.6016C5.87636 35.6016 6.46288 35.6465 6.98745 35.7403C7.51201 35.8342 7.93745 35.9566 8.27201 36.1117C8.27201 36.2668 8.26375 36.4667 8.25136 36.7075C8.23484 36.9483 8.21418 37.2013 8.17701 37.4706C8.14397 37.7359 8.10266 37.9971 8.06136 38.2542C8.01592 38.5113 7.97462 38.7276 7.93745 38.899H7.32201L6.51245 36.7075C6.42571 36.6585 6.28114 36.6218 6.08701 36.5932C5.89288 36.5647 5.69049 36.5483 5.48397 36.5483C5.08332 36.5483 4.70745 36.63 4.35223 36.7891C3.99701 36.9483 3.68723 37.2013 3.41049 37.5523C3.13788 37.8991 2.91897 38.348 2.76614 38.8949C2.60918 39.4417 2.53071 40.0988 2.53071 40.8619C2.53071 42.2453 2.81158 43.3105 3.36918 44.0532C3.92679 44.8 4.68679 45.1714 5.64505 45.1714C5.91766 45.1714 6.1531 45.151 6.3431 45.1061C6.5331 45.0612 6.66527 45.004 6.73136 44.9265L7.45006 42.8942L7.44592 42.882Z" fill="white"/>
<path d="M9.47288 42.2994C9.47288 41.7076 9.56375 41.1812 9.74549 40.7119C9.92723 40.2426 10.1874 39.8426 10.522 39.5162C10.8607 39.1856 11.2696 38.9367 11.7488 38.7612C12.2279 38.5857 12.7731 38.5 13.3803 38.5C14.0659 38.5 14.6566 38.5939 15.1481 38.7816C15.6438 38.9693 16.0485 39.2305 16.3666 39.5651C16.6846 39.8998 16.9159 40.2997 17.0646 40.769C17.2133 41.2383 17.2835 41.7484 17.2835 42.2994C17.2835 42.8911 17.1968 43.4175 17.0192 43.8868C16.8416 44.3561 16.5855 44.7561 16.2468 45.0826C15.9081 45.4131 15.4992 45.662 15.0118 45.8375C14.5244 46.013 13.9833 46.0987 13.3761 46.0987C12.7111 46.0987 12.1329 46.0048 11.6414 45.8171C11.1498 45.6294 10.7451 45.3682 10.4229 45.0336C10.1007 44.6989 9.86114 44.299 9.70418 43.8297C9.54723 43.3604 9.46875 42.8503 9.46875 42.2994H9.47288ZM11.7488 42.2994C11.7488 42.736 11.7735 43.1319 11.8314 43.4951C11.8851 43.8583 11.9801 44.1643 12.1164 44.4174C12.2527 44.6704 12.4385 44.8663 12.674 45.005C12.9094 45.1438 13.2109 45.2172 13.5827 45.2172C13.7974 45.2172 13.9957 45.1683 14.1692 45.0662C14.3468 44.9642 14.4955 44.801 14.6235 44.5724C14.7516 44.3439 14.8466 44.046 14.9085 43.6746C14.9705 43.3033 15.0035 42.8462 15.0035 42.3034C15.0035 41.8586 14.9746 41.4587 14.9209 41.0996C14.8672 40.7404 14.7722 40.4384 14.6401 40.1854C14.5079 39.9324 14.3303 39.7365 14.1031 39.5978C13.8759 39.459 13.5951 39.3856 13.2522 39.3856C12.9961 39.3856 12.7772 39.4345 12.5914 39.5366C12.4055 39.6386 12.2485 39.8018 12.1205 40.0304C11.9924 40.2589 11.8974 40.5568 11.8355 40.9282C11.7735 41.2995 11.7405 41.7566 11.7405 42.2994H11.7488Z" fill="white"/>
<path d="M26.9465 45.9277H23.0557V45.3767C23.1837 45.3074 23.3076 45.2502 23.4315 45.1931C23.5554 45.14 23.7 45.0829 23.8652 45.0258V41.6059C23.8652 40.9938 23.7785 40.5163 23.6009 40.1735C23.4233 39.8307 23.1093 39.6553 22.6591 39.6553C22.2874 39.6553 21.9652 39.7736 21.6967 40.0103C21.4283 40.247 21.2259 40.5694 21.0854 40.9775V45.0217C21.2424 45.0625 21.3828 45.1074 21.5026 45.1604C21.6265 45.2135 21.7546 45.2829 21.8909 45.3726V45.9236H18V45.3726C18.2437 45.2461 18.5659 45.1278 18.9707 45.0217V39.6838L18 39.5655V39.0145C18.128 38.9574 18.2933 38.9003 18.4998 38.8472C18.7063 38.7942 18.9293 38.7452 19.1689 38.6962C19.4085 38.6473 19.6522 38.6065 19.9041 38.5738C20.152 38.5412 20.3833 38.5126 20.5857 38.4922H21.0854V39.9858H21.102C21.3085 39.5777 21.6141 39.2308 22.0272 38.9329C22.4402 38.6391 22.9359 38.4922 23.5265 38.4922C23.9065 38.4922 24.2493 38.5371 24.555 38.6309C24.8565 38.7248 25.1167 38.884 25.3274 39.1166C25.538 39.3492 25.6991 39.6634 25.8107 40.0552C25.9222 40.447 25.98 40.9448 25.98 41.5447V45.0217C26.3724 45.0911 26.6946 45.2053 26.9507 45.3686V45.9195L26.9465 45.9277Z" fill="white"/>
<path d="M31.2807 44.348C31.2807 44.095 31.1898 43.8787 31.0081 43.695C30.8263 43.5114 30.6033 43.34 30.3307 43.189C30.0622 43.0339 29.769 42.8788 29.4509 42.7238C29.1329 42.5687 28.8396 42.3891 28.5711 42.181C28.3027 41.9729 28.0755 41.728 27.8937 41.4464C27.712 41.1649 27.6211 40.8221 27.6211 40.418C27.6211 40.1283 27.6913 39.863 27.8276 39.6263C27.964 39.3896 28.1498 39.1897 28.3853 39.0224C28.6207 38.8591 28.9016 38.7285 29.2279 38.6388C29.5542 38.5449 29.9094 38.5 30.2935 38.5C30.8222 38.5 31.3137 38.5408 31.7681 38.6224C32.2224 38.704 32.6231 38.8183 32.9659 38.9652C32.9287 39.2754 32.8503 39.6059 32.7305 39.961C32.6148 40.316 32.4992 40.6343 32.3918 40.9241H31.892L31.2766 39.4427C31.1609 39.3937 31.037 39.3611 30.909 39.3488C30.7809 39.3325 30.6405 39.3284 30.4835 39.3284C30.1903 39.3284 29.9672 39.4141 29.8144 39.5814C29.6616 39.7528 29.5872 39.9406 29.5872 40.1528C29.5872 40.3936 29.6781 40.6058 29.8598 40.7853C30.0416 40.9649 30.2646 41.1322 30.5372 41.2873C30.8057 41.4424 31.099 41.5974 31.417 41.7525C31.735 41.9076 32.0283 42.0831 32.2968 42.283C32.5653 42.483 32.7924 42.7156 32.9742 42.985C33.1559 43.2543 33.2468 43.5808 33.2468 43.9562C33.2468 44.6255 32.9742 45.1478 32.4248 45.5315C31.8755 45.9151 31.1403 46.1028 30.2233 46.1028C29.7524 46.1028 29.2692 46.0538 28.7694 45.9559C28.2696 45.8579 27.84 45.7233 27.4766 45.5478C27.4972 45.2009 27.5798 44.8459 27.7244 44.4867C27.8731 44.1276 28.0259 43.8093 28.1953 43.5277H28.695L29.4137 45.1111C29.5211 45.1887 29.6409 45.2335 29.7731 45.2499C29.9053 45.2662 30.0292 45.2703 30.149 45.2703C30.434 45.2703 30.6942 45.1887 30.9255 45.0254C31.1609 44.8622 31.2766 44.6336 31.2766 44.3439L31.2807 44.348Z" fill="white"/>
<path d="M34.661 43.0502C34.661 42.4381 34.6776 41.8709 34.7065 41.3485C34.7354 40.8261 34.7519 40.2711 34.7519 39.6916L33.7812 39.5733V39.0224C33.9382 38.9652 34.1323 38.9081 34.3595 38.8469C34.5908 38.7897 34.8263 38.7367 35.0699 38.6959C35.3136 38.651 35.5532 38.6143 35.7804 38.5816C36.0117 38.549 36.2017 38.5204 36.3586 38.5H36.8584C36.8584 39.2264 36.8419 39.9406 36.813 40.6384C36.7841 41.3403 36.7676 42.03 36.7676 42.7074C36.7676 43.4992 36.8502 44.0705 37.0113 44.4214C37.1723 44.7683 37.4739 44.9438 37.9158 44.9438C38.2173 44.9438 38.5023 44.8295 38.7584 44.601C39.0186 44.3725 39.2293 44.0052 39.3986 43.5032V39.6916L38.4445 39.5733V39.0224C38.5932 38.9652 38.7749 38.9081 38.9939 38.8469C39.2128 38.7897 39.4441 38.7367 39.6836 38.6959C39.9232 38.651 40.1628 38.6143 40.3941 38.5816C40.6254 38.549 40.836 38.5204 41.0095 38.5H41.5093V44.8989L42.4799 45.0132V45.5192C42.3436 45.5763 42.1702 45.6335 41.9678 45.6947C41.7613 45.7518 41.5465 45.809 41.3234 45.862C41.0963 45.9151 40.8773 45.96 40.6543 45.9926C40.4354 46.0252 40.2371 46.0538 40.0595 46.0742H39.5597L39.4565 44.348H39.3986C39.3491 44.552 39.2623 44.7561 39.1343 44.9642C39.0062 45.1723 38.841 45.3601 38.6428 45.5315C38.4404 45.6988 38.2049 45.8375 37.9323 45.9436C37.6597 46.0497 37.3541 46.1028 37.0236 46.1028C36.6519 46.1028 36.3215 46.0579 36.0323 45.964C35.7432 45.8702 35.4954 45.711 35.2889 45.4784C35.0823 45.2458 34.9254 44.9316 34.818 44.5398C34.7106 44.148 34.6569 43.6501 34.6569 43.0502H34.661Z" fill="white"/>
<path d="M47.1887 45.9281H43.1368V45.3771C43.4589 45.2221 43.7811 45.1037 44.1074 45.0262V36.2073L42.9922 36.0889V35.538C43.1202 35.4809 43.2937 35.4237 43.5209 35.3625C43.7439 35.3054 43.9876 35.2523 44.2478 35.2115C44.5081 35.1666 44.7683 35.1299 45.0244 35.0972C45.2846 35.0646 45.5159 35.036 45.7224 35.0156H46.2222V45.0262C46.5444 45.1037 46.8665 45.2221 47.1928 45.373V45.924L47.1887 45.9281Z" fill="white"/>
<path d="M47.6016 39.0318C47.9733 38.7951 48.3657 38.6237 48.7746 38.5258V37.3505C48.8531 37.2934 49.0472 37.2077 49.3529 37.0975C49.6627 36.9873 50.0055 36.8975 50.3896 36.8281H50.8894V38.6727H52.8266V39.6154H50.8894V43.3535C50.8894 43.9494 50.9637 44.3656 51.1166 44.5942C51.2694 44.8268 51.5213 44.941 51.8724 44.941C52.05 44.941 52.2483 44.9288 52.4672 44.9043C52.6861 44.8798 52.8885 44.8349 53.0785 44.7655L53.1818 45.243C53.095 45.3287 52.9629 45.4226 52.7935 45.5205C52.62 45.6185 52.4259 45.7082 52.207 45.798C51.9881 45.8837 51.7485 45.9572 51.4883 46.0143C51.2281 46.0714 50.9555 46.1 50.6746 46.1C50.0385 46.1 49.5635 45.9368 49.2496 45.6103C48.9357 45.2838 48.7787 44.7533 48.7787 44.0228V39.6154H47.6057V39.0359L47.6016 39.0318Z" fill="white"/>
<path d="M57.7748 45.9278H53.7229V45.3769C53.8716 45.2994 54.0203 45.2341 54.1772 45.181C54.3342 45.128 54.5035 45.0749 54.6894 45.0259V39.6881L53.7188 39.5697V39.0188C53.8674 38.9617 54.0492 38.9045 54.2681 38.8433C54.487 38.7862 54.7224 38.7331 54.9661 38.6923C55.2098 38.6474 55.4494 38.6107 55.6848 38.5781C55.9203 38.5454 56.1268 38.5168 56.3003 38.4964H56.8001V45.0259C56.9942 45.0749 57.1718 45.1239 57.3287 45.1769C57.4857 45.23 57.6303 45.2953 57.7707 45.3728V45.9238L57.7748 45.9278ZM54.4705 36.2927C54.4705 35.954 54.5861 35.6888 54.8174 35.4929C55.0488 35.3011 55.3503 35.2031 55.7179 35.2031C56.0855 35.2031 56.387 35.3011 56.6183 35.4929C56.8496 35.6847 56.9653 35.954 56.9653 36.2927C56.9653 36.6315 56.8496 36.8845 56.6183 37.0763C56.387 37.2681 56.0855 37.366 55.7179 37.366C55.3503 37.366 55.0488 37.2681 54.8174 37.0763C54.5861 36.8845 54.4705 36.6233 54.4705 36.2927Z" fill="white"/>
<path d="M67.345 45.9277H63.4541V45.3767C63.5821 45.3074 63.706 45.2502 63.83 45.1931C63.9539 45.14 64.0984 45.0829 64.2637 45.0258V41.6059C64.2637 40.9938 64.1769 40.5163 63.9993 40.1735C63.8217 39.8307 63.5078 39.6553 63.0576 39.6553C62.6858 39.6553 62.3637 39.7736 62.0952 40.0103C61.8267 40.247 61.6243 40.5694 61.4839 40.9775V45.0217C61.6408 45.0625 61.7813 45.1074 61.901 45.1604C62.025 45.2135 62.153 45.2829 62.2893 45.3726V45.9236H58.3984V45.3726C58.6421 45.2461 58.9643 45.1278 59.3691 45.0217V39.6838L58.3984 39.5655V39.0145C58.5265 38.9574 58.6917 38.9003 58.8982 38.8472C59.1047 38.7942 59.3278 38.7452 59.5674 38.6962C59.8069 38.6473 60.0506 38.6065 60.3026 38.5738C60.5504 38.5412 60.7817 38.5126 60.9841 38.4922H61.4839V39.9858H61.5004C61.7069 39.5777 62.0126 39.2308 62.4256 38.9329C62.8387 38.6391 63.3343 38.4922 63.925 38.4922C64.305 38.4922 64.6478 38.5371 64.9534 38.6309C65.255 38.7248 65.5152 38.884 65.7258 39.1166C65.9365 39.3492 66.0976 39.6634 66.2091 40.0552C66.3206 40.447 66.3784 40.9448 66.3784 41.5447V45.0217C66.7708 45.0911 67.093 45.2053 67.3491 45.3686V45.9195L67.345 45.9277Z" fill="white"/>
<path d="M71.3301 38.4953C71.9662 38.4953 72.4949 38.5606 72.9162 38.6912C73.3375 38.8218 73.6555 38.985 73.8703 39.1768C74.3288 38.683 74.8575 38.3402 75.4564 38.1484C75.5266 38.1974 75.5927 38.2668 75.6629 38.3606C75.7331 38.4545 75.791 38.5525 75.8405 38.6586C75.8901 38.7647 75.9273 38.8708 75.9562 38.9769C75.9851 39.083 76.0016 39.1687 76.0016 39.238L75.8116 39.5849H74.271C74.3784 39.7196 74.4775 39.8951 74.5725 40.1154C74.6634 40.3317 74.7129 40.5929 74.7129 40.8908C74.7129 41.2091 74.6427 41.5111 74.5064 41.7886C74.3701 42.0702 74.1594 42.3192 73.8827 42.5354C73.606 42.7517 73.2507 42.9231 72.8253 43.0496C72.3999 43.1762 71.9042 43.2374 71.3342 43.2374C71.169 43.2374 71.0203 43.2374 70.8881 43.2292C70.756 43.2251 70.6403 43.2129 70.5412 43.1925C70.504 43.2496 70.4586 43.319 70.4173 43.4047C70.3718 43.4863 70.3512 43.5679 70.3512 43.6455C70.3512 43.8087 70.4668 43.9393 70.7023 44.0372C70.9377 44.1352 71.2351 44.2209 71.5986 44.2984C71.9621 44.3759 72.3503 44.4616 72.7675 44.5596C73.1847 44.6575 73.5729 44.784 73.9364 44.9432C74.2999 45.1024 74.6014 45.3105 74.8451 45.5676C75.0888 45.8247 75.2168 46.1552 75.2251 46.5633C75.2334 46.951 75.1384 47.2938 74.9318 47.5917C74.7253 47.8896 74.4444 48.1467 74.0892 48.3549C73.7299 48.563 73.3127 48.7221 72.8253 48.8323C72.3379 48.9425 71.8257 48.9997 71.2764 48.9997C70.6321 48.9997 70.0786 48.9507 69.6242 48.8487C69.1699 48.7466 68.7981 48.6079 68.5173 48.4365C68.2323 48.261 68.0257 48.0651 67.8936 47.8407C67.7614 47.6162 67.6953 47.3877 67.6953 47.1428C67.6953 46.8735 67.749 46.6409 67.8564 46.445C67.9638 46.2532 68.1166 46.0818 68.3107 45.939C68.5049 45.792 68.7362 45.6737 68.9923 45.5757C69.2525 45.4778 69.5375 45.3921 69.8514 45.3146C69.7027 45.2778 69.5623 45.2289 69.426 45.1677C69.2897 45.1105 69.1657 45.0411 69.0584 44.9554C68.951 44.8738 68.8642 44.7759 68.794 44.6657C68.7238 44.5555 68.6907 44.4249 68.6907 44.2821C68.6907 44.1556 68.7279 44.0332 68.8064 43.9107C68.8849 43.7883 68.9881 43.6781 69.1162 43.5761C69.2442 43.4741 69.3805 43.3843 69.5292 43.2986C69.6779 43.217 69.8225 43.1476 69.9712 43.0864C69.3557 42.9517 68.8642 42.6864 68.5007 42.2947C68.1373 41.9029 67.9555 41.4009 67.9555 40.7929C67.9555 40.0665 68.2571 39.5033 68.8642 39.0952C69.4714 38.6871 70.2934 38.4872 71.3301 38.4872V38.4953ZM73.1805 47.0286C73.1805 46.7674 73.0979 46.5552 72.9368 46.396C72.7757 46.2369 72.5651 46.1063 72.3131 46.0042C72.0571 45.9022 71.7721 45.8165 71.454 45.7431C71.136 45.6696 70.8221 45.5839 70.5081 45.49C70.2521 45.6818 70.0744 45.8777 69.9629 46.0695C69.8555 46.2613 69.8018 46.494 69.8018 46.7674C69.8018 47.2122 69.9547 47.5591 70.2644 47.8039C70.5742 48.0488 71.0079 48.1753 71.5655 48.1753C72.1231 48.1753 72.5197 48.061 72.784 47.8325C73.0484 47.604 73.1805 47.3387 73.1805 47.0286ZM70.0662 40.8786C70.0662 41.3805 70.1529 41.7641 70.3223 42.0253C70.4916 42.2865 70.8303 42.4171 71.3301 42.4171C71.8299 42.4171 72.1397 42.2824 72.3214 42.0172C72.5031 41.7519 72.594 41.3724 72.594 40.8786C72.594 40.3562 72.499 39.9685 72.3131 39.7114C72.1273 39.4543 71.801 39.3278 71.3301 39.3278C70.8592 39.3278 70.5081 39.4543 70.3305 39.7033C70.1529 39.9563 70.0662 40.3481 70.0662 40.8786Z" fill="white"/>
<path d="M0 30.8412V29.2497C0.536957 28.9436 1.11109 28.6783 1.71826 28.4539C2.32543 28.2294 2.91196 28.0907 3.47783 28.0336V4.30697C2.91196 4.19679 2.31717 4.03355 1.69761 3.82542C1.07391 3.61729 0.508044 3.37244 0 3.09085V1.49521H6.83174C7.90565 1.49521 8.92587 1.4544 9.88826 1.3687C10.8507 1.283 11.9535 1.24219 13.1967 1.24219C14.5557 1.24219 15.8691 1.34013 17.1413 1.53602C18.4135 1.7319 19.5452 2.08286 20.5365 2.58482C21.5278 3.08677 22.3167 3.79277 22.9115 4.70282C23.5063 5.61287 23.8037 6.77594 23.8037 8.20427C23.8037 9.09799 23.6426 9.93051 23.3163 10.6977C22.99 11.4649 22.5398 12.1424 21.9574 12.73C21.3791 13.3177 20.6976 13.8074 19.9211 14.1992C19.1446 14.5909 18.302 14.8684 17.3974 15.0358V15.2031C18.302 15.3133 19.2148 15.5255 20.1359 15.8315C21.0528 16.1376 21.883 16.5865 22.6183 17.1742C23.3535 17.7618 23.9565 18.4964 24.4233 19.3738C24.89 20.2553 25.1213 21.2959 25.1213 22.4957C25.1213 24.0057 24.7826 25.3034 24.1011 26.393C23.4237 27.4826 22.5109 28.3763 21.3626 29.0742C20.2185 29.772 18.9091 30.2821 17.4387 30.6045C15.9683 30.9269 14.44 31.0861 12.858 31.0861C12.2633 31.0861 11.6148 31.0698 10.9043 31.0453C10.198 31.0167 9.48761 30.9881 8.78131 30.9596C8.075 30.931 7.38935 30.9025 6.72435 30.8739C6.05935 30.8453 5.50174 30.8331 5.04739 30.8331H0V30.8412ZM10.9457 14.5746C11.4248 14.5746 11.908 14.5542 12.3872 14.5134C12.8663 14.4726 13.3207 14.4236 13.7461 14.3665C14.8489 13.9217 15.7411 13.2279 16.4185 12.2934C17.0959 11.3588 17.4387 10.2896 17.4387 9.08575C17.4387 7.32687 16.972 6.03321 16.0385 5.20886C15.105 4.38451 13.903 3.97234 12.4326 3.97234C11.8089 3.97234 11.272 3.98866 10.8217 4.01314C10.3674 4.04171 9.95848 4.08252 9.59087 4.13965V14.5787H10.9498L10.9457 14.5746ZM12.8126 28.3682C14.5928 28.3682 15.993 27.8458 17.0133 26.797C18.0335 25.7482 18.5415 24.3607 18.5415 22.6263C18.5415 21.5653 18.3722 20.6919 18.0335 20.0063C17.6948 19.3207 17.228 18.778 16.6333 18.3699C16.0385 17.9659 15.3322 17.6843 14.5102 17.5333C13.6883 17.3782 12.8002 17.3048 11.8378 17.3048H9.59087V28.0784C9.98739 28.1641 10.4046 28.2335 10.8424 28.2866C11.2802 28.3437 11.937 28.3723 12.8167 28.3723L12.8126 28.3682Z" fill="white"/>
<path d="M48.3568 22.042H50.0957C50.2072 22.4909 50.3146 23.0255 50.4137 23.6581C50.5129 24.2865 50.5955 24.9558 50.6698 25.67C50.74 26.3841 50.7896 27.0901 50.8185 27.788C50.8474 28.4858 50.8598 29.1143 50.8598 29.6734C49.8685 30.2896 48.6335 30.7222 47.1466 30.9711C45.6596 31.22 44.1396 31.3466 42.5866 31.3466C40.2405 31.3466 38.1092 31.0609 36.2009 30.4855C34.2926 29.9141 32.6653 29.0041 31.3229 27.7594C29.9805 26.5147 28.9396 24.9354 28.2044 23.0214C27.4692 21.1075 27.1016 18.8099 27.1016 16.1247C27.1016 13.4394 27.5063 11.1867 28.3118 9.26868C29.1172 7.35472 30.1994 5.78356 31.5583 4.55112C32.9172 3.32275 34.4909 2.42087 36.2876 1.84545C38.0844 1.27412 39.972 0.984375 41.9505 0.984375C43.8174 0.984375 45.5068 1.11905 47.0226 1.38431C48.5344 1.64957 49.7735 2.00461 50.7359 2.45351C50.7359 2.90242 50.7153 3.47375 50.674 4.17159C50.6327 4.86943 50.5624 5.604 50.4633 6.37121C50.3642 7.13843 50.2526 7.8934 50.1246 8.63613C49.9966 9.37887 49.8768 9.99917 49.7653 10.5011H47.985L45.6513 4.17159C45.3953 4.03284 44.9863 3.91857 44.4205 3.83695C43.8546 3.75125 43.2763 3.71044 42.6816 3.71044C41.5209 3.71044 40.4346 3.93897 39.4144 4.40012C38.3942 4.86127 37.4896 5.59584 36.7007 6.59975C35.9076 7.60774 35.284 8.89731 34.8337 10.4766C34.3794 12.056 34.1563 13.9495 34.1563 16.1573C34.1563 20.1525 34.9618 23.2296 36.5768 25.3802C38.1877 27.5309 40.3809 28.6082 43.1524 28.6082C43.9455 28.6082 44.6146 28.547 45.1681 28.4205C45.7216 28.294 46.0933 28.1226 46.2916 27.8982L48.3692 22.0298L48.3568 22.042Z" fill="white"/>
<path d="M75.2276 1.5C75.1697 2.75693 75.0706 4.05875 74.9302 5.3973C74.7897 6.73992 74.6039 7.99685 74.3767 9.16808H72.6378L70.6841 4.22199H62.7495V14.4937H67.925L69.7919 11.2657H71.1508C71.2913 12.6369 71.3615 14.1591 71.3615 15.8363C71.3615 17.5136 71.2913 19.0766 71.1508 20.5294H69.7919L67.925 17.2157H62.7495V28.1159H71.0228L73.2697 22.7903H75.0087C75.1202 23.3208 75.2358 23.9207 75.3473 24.594C75.4589 25.2633 75.5539 25.9571 75.6241 26.6672C75.6943 27.3813 75.7521 28.0996 75.7934 28.826C75.8347 29.5524 75.8554 30.2257 75.8554 30.8379H52.9026V29.2463C53.3817 28.9933 53.9228 28.7566 54.5134 28.5321C55.1082 28.3077 55.7278 28.1404 56.3804 28.0302V4.31177C55.8145 4.20158 55.2156 4.03834 54.5754 3.83022C53.9393 3.62209 53.3817 3.37723 52.8984 3.09565V1.5H75.2152H75.2276Z" fill="white"/>
</svg>
