<svg width="218" height="45" viewBox="0 0 218 45" fill="none" xmlns="http://www.w3.org/2000/svg">
<g clip-path="url(#clip0_5232_162802)">
<path d="M-0.000234103 19.158V18.189C0.323236 18.0032 0.668271 17.8417 1.03217 17.7044C1.39877 17.5698 1.7492 17.4837 2.09154 17.4487V3.03104C1.7519 2.96375 1.39338 2.86684 1.0187 2.73763C0.644011 2.61111 0.304367 2.46306 -0.00292969 2.29078V1.3217H4.10514C4.75208 1.3217 5.36398 1.29748 5.94353 1.24633C6.52038 1.19519 7.1835 1.17096 7.93287 1.17096C8.74963 1.17096 9.53944 1.23018 10.305 1.34862C11.0705 1.46707 11.7498 1.67972 12.3455 1.9866C12.9413 2.29347 13.4184 2.72148 13.7742 3.27331C14.1327 3.82514 14.3106 4.5358 14.3106 5.39989C14.3106 5.94365 14.2136 6.44972 14.0168 6.91541C13.82 7.3838 13.5478 7.79565 13.2 8.15098C12.8523 8.509 12.4426 8.8051 11.9762 9.04199C11.5072 9.27887 11.0031 9.44846 10.4586 9.55075V9.65304C11.0031 9.72034 11.5503 9.84955 12.1029 10.0353C12.6555 10.221 13.1542 10.4929 13.5963 10.8509C14.0384 11.2063 14.3996 11.6531 14.6799 12.1888C14.9603 12.7245 15.1004 13.3571 15.1004 14.0866C15.1004 15.0045 14.8956 15.7932 14.4885 16.4554C14.0815 17.1176 13.5316 17.6614 12.8442 18.0867C12.1542 18.512 11.3697 18.8216 10.4856 19.0154C9.60144 19.2092 8.68224 19.3088 7.7307 19.3088C7.37219 19.3088 6.98133 19.3007 6.55812 19.2846C6.13222 19.2684 5.70632 19.2496 5.28311 19.2334C4.85721 19.2173 4.44478 19.1984 4.04584 19.1823C3.64689 19.1661 3.30994 19.158 3.03769 19.158H-0.000234103ZM6.58238 9.27349C6.87081 9.27349 7.15924 9.26003 7.45036 9.2358C7.73879 9.21158 8.01104 9.18197 8.26712 9.14697C8.93024 8.87509 9.46666 8.45516 9.87369 7.88448C10.2807 7.3165 10.4856 6.66507 10.4856 5.93557C10.4856 4.86421 10.2052 4.08087 9.64457 3.58018C9.08388 3.0795 8.36147 2.82915 7.47732 2.82915C7.10263 2.82915 6.77916 2.83723 6.50691 2.85338C6.23465 2.86953 5.98666 2.89645 5.76562 2.92875V9.27349H6.58238ZM7.70375 17.656C8.77659 17.656 9.61761 17.3383 10.2295 16.7004C10.8414 16.0624 11.1487 15.2198 11.1487 14.1646C11.1487 13.5186 11.0463 12.9883 10.8414 12.571C10.6365 12.1538 10.3562 11.8227 10.0004 11.5777C9.64187 11.3328 9.21866 11.1605 8.72537 11.069C8.23208 10.9748 7.69566 10.929 7.1188 10.929H5.76562V17.4756C6.00283 17.5268 6.25352 17.5698 6.51769 17.6021C6.78186 17.6371 7.17541 17.6533 7.70375 17.6533V17.656Z" fill="white"/>
<path d="M28.3193 17.018C28.1819 17.3061 27.9662 17.5995 27.6697 17.8983C27.3732 18.1944 27.0066 18.4582 26.5726 18.687C26.1386 18.9158 25.6372 19.1042 25.0685 19.2469C24.4997 19.3923 23.8824 19.4622 23.2193 19.4622C22.1653 19.4622 21.2299 19.3061 20.4132 18.9912C19.5964 18.6762 18.9171 18.2267 18.3726 17.6398C17.8281 17.053 17.4157 16.3531 17.1354 15.5375C16.855 14.7219 16.7148 13.8039 16.7148 12.7864C16.7148 10.6114 17.2836 8.95587 18.4238 7.81721C19.5641 6.67855 21.1437 6.11057 23.1681 6.11057C24.0361 6.11057 24.8474 6.22901 25.6049 6.46858C26.3623 6.70547 26.9904 7.09579 27.4918 7.63955C27.9932 8.18331 28.3409 8.89665 28.5377 9.77959C28.7345 10.6625 28.721 11.742 28.4999 13.0152H20.6666C20.6827 14.3585 21.0278 15.4271 21.699 16.2266C22.3702 17.0261 23.3622 17.4245 24.6722 17.4245C25.2329 17.4245 25.8151 17.341 26.4189 17.1688C27.0228 16.9992 27.4945 16.7784 27.8341 16.5066L28.3193 17.0153V17.018ZM23.0495 7.56687C22.7125 7.56687 22.4106 7.62609 22.1491 7.74453C21.8877 7.86297 21.6585 8.08101 21.4645 8.39327C21.2704 8.70822 21.114 9.13354 20.9954 9.66653C20.8768 10.2022 20.7933 10.8779 20.742 11.6908H24.8232C24.9418 10.3664 24.8663 9.34619 24.5967 8.63285C24.3245 7.9195 23.8096 7.56148 23.0495 7.56148V7.56687Z" fill="white"/>
<path d="M37.3255 19.1581H30.2846V18.189C30.8453 17.9171 31.4087 17.7125 31.9694 17.5752V2.0889L30.0312 1.88432V0.915242C30.2523 0.812951 30.5596 0.71066 30.9504 0.608369C31.3413 0.506078 31.7618 0.417246 32.2147 0.341874C32.6648 0.266502 33.115 0.196513 33.5679 0.137292C34.018 0.0780706 34.4224 0.0323088 34.7809 -0.00268555H35.6488V17.5752C36.2095 17.7125 36.7729 17.9144 37.3336 18.1863V19.1554L37.3255 19.1581Z" fill="white"/>
<path d="M49.825 15.4648C49.825 15.839 49.8277 16.162 49.8385 16.4339C49.8466 16.7058 49.8682 16.9938 49.9032 17.3007L51.6634 17.5564V18.4474C51.4586 18.5497 51.1836 18.652 50.8332 18.7543C50.4855 18.8566 50.1189 18.9535 49.7361 19.0477C49.3533 19.1419 48.9732 19.2173 48.6013 19.2765C48.2266 19.3357 47.895 19.3815 47.6066 19.4165H46.7386C46.5688 19.0261 46.4663 18.6358 46.4313 18.2455C46.3963 17.8552 46.372 17.3787 46.3558 16.8188H46.2291C46.1429 17.158 46 17.4864 45.7951 17.7987C45.5903 18.1136 45.3315 18.3936 45.0161 18.6385C44.7007 18.8862 44.3314 19.0854 43.9055 19.2361C43.4796 19.3896 43.0025 19.4649 42.4769 19.4649C41.9162 19.4649 41.396 19.3788 40.9215 19.2092C40.4444 19.0396 40.0293 18.8027 39.6708 18.4958C39.3123 18.189 39.0319 17.8202 38.8298 17.3868C38.6249 16.9534 38.5225 16.4662 38.5225 15.9224C38.5225 15.1579 38.668 14.5307 38.9565 14.0381C39.2449 13.5455 39.7004 13.1417 40.3204 12.8268C40.9404 12.5118 41.741 12.2803 42.7195 12.1269C43.698 11.9734 44.884 11.8631 46.2777 11.7958C46.4124 10.3341 46.3531 9.26542 46.0997 8.58438C45.8437 7.90603 45.2911 7.56416 44.442 7.56416C43.9136 7.56416 43.4311 7.6503 42.989 7.81989L41.7895 10.8779H40.6681C40.5307 10.6733 40.4013 10.4418 40.2719 10.178C40.1452 9.91417 40.0239 9.63421 39.9134 9.33811C39.8029 9.042 39.7085 8.74051 39.633 8.43364C39.5576 8.12676 39.501 7.83066 39.4659 7.54263C40.1129 7.10116 40.9458 6.75391 41.9674 6.49818C42.989 6.24245 44.0673 6.11594 45.2075 6.11594C46.1779 6.11594 46.9677 6.22361 47.5796 6.43358C48.1915 6.64623 48.6713 6.93427 49.0218 7.30036C49.3695 7.66645 49.6121 8.09446 49.7496 8.58707C49.8843 9.07969 49.9544 9.60729 49.9544 10.1672C49.9544 11.1874 49.9329 12.108 49.8897 12.9318C49.8466 13.7555 49.825 14.6007 49.825 15.4675V15.4648ZM44.0834 17.4272C44.442 17.4272 44.7466 17.3599 45.0026 17.2226C45.2587 17.088 45.4744 16.9265 45.6523 16.7381C45.8302 16.5523 45.9677 16.3477 46.0593 16.127C46.1537 15.9063 46.2264 15.7098 46.275 15.5402V12.9937C45.4744 13.0098 44.822 13.061 44.3099 13.1471C43.8004 13.2332 43.3988 13.3732 43.1103 13.567C42.8219 13.7635 42.6224 14.0085 42.5119 14.3046C42.4014 14.6007 42.3448 14.9641 42.3448 15.3867C42.3448 16.0328 42.4984 16.5335 42.803 16.8888C43.1103 17.2468 43.5336 17.4245 44.0781 17.4245L44.0834 17.4272Z" fill="white"/>
<path d="M68.0417 19.158H61.2812V18.189C61.5023 18.0705 61.7179 17.9629 61.9309 17.8686C62.1438 17.7744 62.3945 17.6775 62.6829 17.5752V11.5724C62.6829 10.501 62.5293 9.66113 62.2247 9.05546C61.9174 8.45248 61.3729 8.1483 60.5911 8.1483C59.9442 8.1483 59.3889 8.35557 58.9199 8.77281C58.4509 9.19005 58.1004 9.75535 57.8605 10.4714V17.5725C58.1328 17.6398 58.3754 17.7206 58.5883 17.8148C58.8013 17.909 59.025 18.0328 59.2649 18.1863V19.1554H52.5044V18.1863C52.9303 17.9655 53.491 17.7583 54.1891 17.5725V8.20483L52.5044 8.00025V7.03117C52.7254 6.92888 53.0139 6.83197 53.3724 6.73776C53.7309 6.64354 54.1164 6.55471 54.5342 6.47126C54.952 6.38512 55.3752 6.31513 55.8092 6.25591C56.2432 6.19669 56.6394 6.15093 56.9952 6.11594H57.8632V8.74051H57.8875C58.246 8.02716 58.7797 7.41073 59.494 6.89389C60.2084 6.37705 61.0764 6.11594 62.0953 6.11594C62.7584 6.11594 63.3541 6.19669 63.8798 6.35821C64.4081 6.51972 64.8529 6.80506 65.2195 7.21422C65.5861 7.62338 65.8664 8.17253 66.0605 8.86164C66.2546 9.55076 66.3543 10.4229 66.3543 11.4781V17.5806C67.0336 17.6991 67.597 17.9036 68.0391 18.1944V19.1634L68.0417 19.158Z" fill="white"/>
<path d="M74.956 6.11594C76.0611 6.11594 76.9803 6.23169 77.7108 6.4605C78.4413 6.68931 78.9939 6.97464 79.3686 7.31382C80.1665 6.44704 81.0857 5.84406 82.1235 5.50488C82.2421 5.59102 82.3607 5.71216 82.482 5.87367C82.6006 6.03518 82.7031 6.21015 82.7893 6.39589C82.8729 6.58432 82.943 6.77006 82.9942 6.9558C83.0454 7.14154 83.0697 7.29498 83.0697 7.41342L82.7381 8.02447H80.0587C80.2447 8.26136 80.4199 8.57092 80.5816 8.95317C80.7434 9.33541 80.8242 9.79034 80.8242 10.3153C80.8242 10.8752 80.7056 11.4028 80.4657 11.8954C80.2285 12.388 79.8673 12.8241 79.3821 13.2063C78.8969 13.5886 78.285 13.8901 77.5464 14.1108C76.8051 14.3315 75.9425 14.4419 74.956 14.4419C74.6675 14.4419 74.406 14.4392 74.1769 14.4284C73.9478 14.4204 73.7483 14.3988 73.5785 14.3638C73.5111 14.4661 73.4383 14.5899 73.3629 14.7326C73.2874 14.878 73.247 15.018 73.247 15.1525C73.247 15.4406 73.4518 15.6721 73.8588 15.8417C74.2659 16.0113 74.7861 16.1647 75.4142 16.2993C76.0423 16.4366 76.7189 16.5873 77.4413 16.7569C78.1637 16.9265 78.8403 17.1526 79.4684 17.4326C80.0964 17.7125 80.6248 18.0786 81.0507 18.5282C81.4766 18.9777 81.6976 19.5591 81.7138 20.2725C81.73 20.9508 81.5601 21.5538 81.2043 22.0814C80.8458 22.609 80.3579 23.0532 79.7379 23.4193C79.1179 23.7854 78.3847 24.0653 77.5437 24.2591C76.7027 24.453 75.8051 24.5526 74.8508 24.5526C73.7295 24.5526 72.7725 24.4637 71.98 24.2861C71.1902 24.1084 70.546 23.8661 70.0527 23.5593C69.5594 23.2524 69.1982 22.9051 68.9691 22.5148C68.7399 22.1245 68.624 21.7153 68.624 21.2927C68.624 20.8162 68.7184 20.4098 68.9044 20.0706C69.0904 19.7314 69.3545 19.4326 69.6942 19.1796C70.0338 18.9239 70.4301 18.7139 70.8802 18.5416C71.3304 18.372 71.8291 18.2186 72.3736 18.084C72.1175 18.0167 71.8722 17.9306 71.6323 17.8283C71.3951 17.726 71.1821 17.6021 70.9934 17.4595C70.8047 17.3141 70.6538 17.1445 70.5352 16.9507C70.4166 16.7569 70.3573 16.5308 70.3573 16.2751C70.3573 16.0543 70.4247 15.839 70.5621 15.6263C70.6969 15.4137 70.8775 15.2198 71.0986 15.0395C71.3196 14.8618 71.5568 14.7003 71.8129 14.555C72.069 14.4096 72.3224 14.2885 72.5784 14.1862C71.5083 13.9493 70.6565 13.4863 70.0284 12.7972C69.4004 12.108 69.085 11.2305 69.085 10.1591C69.085 8.88587 69.6133 7.89257 70.6673 7.17923C71.7213 6.46588 73.1499 6.10786 74.9533 6.10786L74.956 6.11594ZM78.1691 21.0962C78.1691 20.6386 78.0289 20.2671 77.7486 19.9871C77.4682 19.7072 77.107 19.4784 76.665 19.298C76.2229 19.1204 75.7242 18.9669 75.1716 18.8404C74.619 18.7139 74.0691 18.5658 73.5273 18.3936C73.0852 18.7327 72.7698 19.0719 72.5838 19.4138C72.3951 19.753 72.3035 20.1621 72.3035 20.6359C72.3035 21.4165 72.5704 22.0249 73.1068 22.4583C73.6432 22.8917 74.3953 23.107 75.3657 23.107C76.3361 23.107 77.0235 22.9078 77.4844 22.5094C77.9427 22.111 78.1718 21.64 78.1718 21.0962H78.1691ZM72.7617 10.2937C72.7617 11.1767 72.91 11.8469 73.2092 12.3072C73.5057 12.7649 74.088 12.9964 74.956 12.9964C75.8239 12.9964 76.363 12.7622 76.6784 12.2965C76.9938 11.8308 77.1502 11.1632 77.1502 10.2964C77.1502 9.37848 76.9884 8.69475 76.665 8.24521C76.3415 7.79566 75.7727 7.56955 74.956 7.56955C74.1392 7.56955 73.5273 7.79028 73.22 8.23175C72.9127 8.67321 72.7617 9.36233 72.7617 10.2964V10.2937Z" fill="white"/>
<path d="M94.8816 17.018C94.7441 17.3061 94.5285 17.5995 94.2319 17.8983C93.9354 18.1944 93.5688 18.4582 93.1349 18.687C92.7009 18.9158 92.1995 19.1042 91.6307 19.2469C91.0619 19.3923 90.4447 19.4622 89.7815 19.4622C88.7276 19.4622 87.7922 19.3061 86.9754 18.9912C86.1587 18.6762 85.4794 18.2267 84.9349 17.6398C84.3904 17.053 83.978 16.3531 83.6976 15.5375C83.4173 14.7219 83.2771 13.8039 83.2771 12.7864C83.2771 10.6114 83.8459 8.95587 84.9861 7.81721C86.1263 6.67855 87.7059 6.11057 89.7303 6.11057C90.5983 6.11057 91.4097 6.22901 92.1671 6.46858C92.9246 6.70547 93.5527 7.09579 94.054 7.63955C94.5554 8.18331 94.9032 8.89665 95.0999 9.77959C95.2967 10.6625 95.2832 11.742 95.0622 13.0152H87.2288C87.245 14.3585 87.59 15.4271 88.2612 16.2266C88.9324 17.0261 89.9244 17.4245 91.2345 17.4245C91.7951 17.4245 92.3774 17.341 92.9812 17.1688C93.585 16.9992 94.0567 16.7784 94.3964 16.5066L94.8816 17.0153V17.018ZM89.6117 7.56687C89.2748 7.56687 88.9729 7.62609 88.7114 7.74453C88.4499 7.86297 88.2208 8.08101 88.0267 8.39327C87.8326 8.70822 87.6763 9.13354 87.5577 9.66653C87.4391 10.2022 87.3555 10.8779 87.3043 11.6908H91.3854C91.504 10.3664 91.4285 9.34619 91.159 8.63285C90.8867 7.9195 90.3719 7.56148 89.6117 7.56148V7.56687Z" fill="white"/>
<path d="M103.454 9.35157C103.249 9.45386 103.012 9.62344 102.739 9.86302C102.467 10.1026 102.219 10.4929 101.998 11.0394V17.5806C102.338 17.6156 102.677 17.6775 103.02 17.7717C103.359 17.866 103.699 18.0059 104.041 18.1944V19.1634H96.6418V18.1944C96.9491 18.0248 97.2376 17.8956 97.5098 17.8094C97.7821 17.7233 98.0543 17.6479 98.3266 17.5779V8.20483L96.6418 8.00025V7.03117C96.9141 6.91273 97.2511 6.80236 97.65 6.70007C98.0489 6.59778 98.4614 6.50895 98.8873 6.43358C99.3132 6.3582 99.7256 6.2936 100.125 6.24245C100.523 6.19131 100.86 6.14824 101.133 6.11594H102.001V9.505H102.103C102.238 9.13083 102.44 8.74051 102.702 8.33404C102.966 7.92757 103.276 7.5534 103.634 7.21422C103.993 6.87504 104.384 6.60317 104.807 6.39858C105.233 6.194 105.675 6.10248 106.133 6.11863C106.319 6.35551 106.481 6.692 106.618 7.12539C106.753 7.55878 106.864 7.97064 106.95 8.36096V9.35426H103.454V9.35157Z" fill="white"/>
<path d="M37.8808 39.3444H38.9267C38.9941 39.6163 39.0588 39.942 39.1181 40.3243C39.1774 40.7065 39.2286 41.113 39.2718 41.5464C39.3149 41.9798 39.3445 42.4078 39.3607 42.8331C39.3769 43.2584 39.385 43.6406 39.385 43.9798C38.7893 44.354 38.0453 44.6178 37.153 44.7685C36.2608 44.922 35.3443 44.9973 34.4116 44.9973C32.9991 44.9973 31.7187 44.8224 30.5731 44.4751C29.4248 44.1279 28.4463 43.576 27.6403 42.8196C26.8316 42.0632 26.2063 41.1049 25.7642 39.942C25.3221 38.7791 25.1011 37.382 25.1011 35.7508C25.1011 34.1195 25.3437 32.7493 25.8289 31.5864C26.3141 30.4236 26.9637 29.4679 27.7805 28.7196C28.5972 27.9713 29.5461 27.4248 30.6243 27.0749C31.7053 26.7276 32.8401 26.5526 34.0315 26.5526C35.1529 26.5526 36.1691 26.6334 37.0802 26.7949C37.9914 26.9564 38.7353 27.1745 39.3122 27.4437C39.3122 27.7155 39.2987 28.0628 39.2745 28.4881C39.2502 28.9134 39.2071 29.3576 39.1478 29.826C39.0885 30.2943 39.0211 30.752 38.9429 31.2015C38.8674 31.651 38.7946 32.0306 38.7273 32.3348H37.6544L36.25 28.4881C36.0964 28.4047 35.8511 28.3347 35.5114 28.2835C35.1718 28.2324 34.8214 28.2081 34.4655 28.2081C33.7674 28.2081 33.1123 28.3481 32.5005 28.6281C31.8886 28.908 31.344 29.3549 30.8669 29.9659C30.3898 30.577 30.0151 31.363 29.7429 32.3213C29.4706 33.2823 29.3358 34.4317 29.3358 35.7723C29.3358 38.2004 29.821 40.0685 30.7915 41.3768C31.7619 42.685 33.08 43.3391 34.7459 43.3391C35.223 43.3391 35.6273 43.3015 35.9589 43.2234C36.2904 43.1453 36.5169 43.0403 36.6355 42.9058L37.8862 39.339L37.8808 39.3444Z" fill="white"/>
<path d="M48.011 34.8867C47.8061 34.9889 47.5689 35.1585 47.2966 35.3981C47.0244 35.6377 46.7764 36.028 46.5553 36.5745V43.1157C46.895 43.1507 47.2346 43.2126 47.577 43.3068C47.9166 43.401 48.2563 43.541 48.5986 43.7294V44.6985H41.1992V43.7294C41.5065 43.5599 41.7949 43.4307 42.0672 43.3445C42.3395 43.2584 42.6117 43.183 42.884 43.113V33.7426L41.1992 33.538V32.569C41.4715 32.4505 41.8084 32.3401 42.2074 32.2379C42.6063 32.1356 43.0187 32.0467 43.4446 31.9714C43.8705 31.896 44.283 31.8314 44.6819 31.7802C45.0809 31.7291 45.4178 31.686 45.6901 31.6537H46.558V35.0428H46.6605C46.7953 34.6686 46.9974 34.2783 47.2589 33.8718C47.5231 33.4653 47.8331 33.0912 48.1916 32.752C48.5501 32.4128 48.9409 32.1409 49.3641 31.9364C49.79 31.7318 50.2321 31.6403 50.6904 31.6564C50.8764 31.8933 51.0381 32.2298 51.1756 32.6632C51.3104 33.0966 51.4209 33.5084 51.5071 33.8987V34.892H48.011V34.8867Z" fill="white"/>
<path d="M53.2916 39.6378C53.2916 38.5664 53.3159 37.5704 53.3671 36.6498C53.4183 35.7292 53.4426 34.7601 53.4426 33.7372L51.7578 33.5326V32.5636C52.0301 32.4613 52.367 32.359 52.766 32.2567C53.1649 32.1544 53.5773 32.0656 54.0032 31.9902C54.4291 31.9148 54.8416 31.8448 55.2405 31.7856C55.6395 31.7264 55.9764 31.6806 56.2487 31.6456H57.1166C57.1166 32.9189 57.0924 34.1733 57.0412 35.4035C56.9899 36.6364 56.9657 37.845 56.9657 39.0348C56.9657 40.4265 57.1059 41.4306 57.3862 42.0416C57.6665 42.6527 58.1895 42.9596 58.955 42.9596C59.4834 42.9596 59.9713 42.7604 60.4214 42.3593C60.8716 41.9582 61.2409 41.3148 61.532 40.4292V33.7345L59.8742 33.5299V32.5609C60.1303 32.4586 60.4484 32.3563 60.8312 32.254C61.2139 32.1517 61.6129 32.0629 62.0307 31.9875C62.4485 31.9121 62.8609 31.8421 63.268 31.7829C63.675 31.7237 64.0335 31.6779 64.3381 31.6429H65.2061V42.8788L66.8908 43.0834V43.9744C66.6536 44.0767 66.3544 44.179 65.9986 44.2813C65.6401 44.3836 65.2681 44.4805 64.8772 44.5747C64.4864 44.6689 64.0982 44.7443 63.7154 44.8035C63.3327 44.8627 62.9876 44.9085 62.683 44.9435H61.815L61.6371 41.9124H61.5347C61.4484 42.2704 61.2975 42.6312 61.0764 42.9946C60.8554 43.3607 60.5697 43.6918 60.2219 43.9879C59.8742 44.284 59.4591 44.5262 58.9847 44.7147C58.5076 44.9004 57.9819 44.9946 57.4024 44.9946C56.7554 44.9946 56.1813 44.9139 55.6799 44.7524C55.1785 44.5908 54.7499 44.3055 54.3914 43.8963C54.0329 43.4872 53.7633 42.938 53.5746 42.2489C53.3886 41.5598 53.2943 40.6876 53.2943 39.6324L53.2916 39.6378Z" fill="white"/>
<path d="M82.3768 44.6958H75.999V43.7268C76.1688 43.6245 76.3602 43.5195 76.5732 43.4064C76.7861 43.2961 77.0207 43.1965 77.274 43.113V38.0308C77.274 37.2474 77.2525 36.5825 77.2093 36.0388C77.1662 35.495 77.0773 35.0482 76.9425 34.6982C76.805 34.3483 76.619 34.0926 76.3818 33.931C76.1446 33.7695 75.8373 33.6888 75.4626 33.6888C74.9181 33.6888 74.4464 33.896 74.0474 34.316C73.6485 34.7332 73.3547 35.2824 73.166 35.9634V43.1157C73.6242 43.253 74.0501 43.4576 74.441 43.7294V44.6985H67.8071V43.7294C68.0444 43.611 68.3085 43.5006 68.5969 43.3957C68.8854 43.2934 69.1846 43.1992 69.4892 43.113V33.7426L67.8044 33.538V32.569C68.0767 32.4505 68.4136 32.3401 68.8126 32.2379C69.2115 32.1356 69.624 32.0467 70.0499 31.9714C70.4758 31.896 70.8882 31.8314 71.2871 31.7802C71.6861 31.7291 72.023 31.686 72.2953 31.6537H73.1633V34.534H73.1875C73.4598 33.7372 73.9396 33.0562 74.6297 32.4963C75.3197 31.9364 76.1473 31.6564 77.1177 31.6564C77.5247 31.6564 77.9264 31.6995 78.3172 31.7829C78.7081 31.8691 79.0693 32.0252 79.4008 32.254C79.7324 32.4828 80.0181 32.8031 80.2554 33.2096C80.4926 33.6161 80.6624 34.1437 80.7648 34.7897C81.0721 33.8557 81.5816 33.0993 82.2959 32.5232C83.0102 31.9471 83.8782 31.6564 84.8971 31.6564C85.5252 31.6564 86.0832 31.7372 86.5684 31.8987C87.0536 32.0602 87.4606 32.3455 87.7922 32.7547C88.1238 33.1639 88.3745 33.7157 88.5443 34.4156C88.7141 35.1128 88.8004 35.9984 88.8004 37.0698V43.1211C89.3772 43.2234 89.9406 43.428 90.4851 43.7348V44.7039H83.8513V43.7348C84.2421 43.4791 84.668 43.2745 85.1263 43.1211V37.5785C85.1263 36.2514 85.0023 35.2716 84.757 34.6417C84.509 34.0118 83.978 33.6968 83.1612 33.6968C82.5493 33.6968 82.0695 33.9257 81.7191 34.386C81.3713 34.8463 81.1098 35.46 80.94 36.2245V43.1211C81.2285 43.2072 81.4899 43.3014 81.7191 43.401C81.9482 43.5033 82.1665 43.6137 82.3687 43.7321V44.7012L82.3768 44.6958Z" fill="white"/>
<path d="M92.3776 27.624L90.4395 27.4194V26.4503C90.6955 26.348 91.0298 26.2458 91.4476 26.1435C91.8654 26.0412 92.2967 25.9523 92.7496 25.877C93.1997 25.8016 93.6418 25.7316 94.0758 25.6724C94.5098 25.6132 94.8791 25.5674 95.1864 25.5324H96.0544V34.3483H96.1056C96.4452 33.5003 96.9655 32.8355 97.6609 32.3617C98.3591 31.8852 99.1839 31.6483 100.135 31.6483C101.632 31.6483 102.796 32.1679 103.632 33.2015C104.465 34.2379 104.882 35.81 104.882 37.915C104.882 40.2408 104.265 41.9905 103.033 43.1642C101.799 44.3351 99.9926 44.922 97.6124 44.922C97.1865 44.922 96.7121 44.8923 96.1837 44.8331C95.6554 44.7739 95.1459 44.7012 94.6527 44.6151C94.1594 44.5289 93.7038 44.4267 93.2887 44.3082C92.8709 44.1898 92.569 44.0713 92.383 43.9502V27.6213L92.3776 27.624ZM98.475 33.6888C97.828 33.6888 97.3105 33.923 96.9196 34.3887C96.5288 34.857 96.2403 35.4466 96.0517 36.1599V42.9111C96.2889 43.0807 96.5827 43.218 96.9331 43.3176C97.2808 43.4199 97.6771 43.471 98.1192 43.471C99.0896 43.471 99.7985 43.0376 100.249 42.1709C100.699 41.3041 100.925 39.9447 100.925 38.0954C100.925 36.7548 100.742 35.6835 100.378 34.884C100.011 34.0872 99.378 33.6861 98.4777 33.6861L98.475 33.6888Z" fill="white"/>
<path d="M129.55 44.6958C129.21 44.4913 128.811 44.249 128.35 43.969C127.892 43.6891 127.439 43.3284 126.997 42.8869C126.469 43.4307 125.73 43.9179 124.778 44.3513C123.827 44.7847 122.738 45 121.514 45C120.374 45 119.393 44.8439 118.568 44.5289C117.743 44.214 117.066 43.8075 116.541 43.3068C116.012 42.8061 115.622 42.2409 115.368 41.6136C115.112 40.9864 114.985 40.3485 114.985 39.7024C114.985 38.9218 115.134 38.203 115.433 37.5489C115.729 36.8948 116.091 36.3134 116.516 35.8046C116.942 35.2958 117.395 34.857 117.88 34.4936C118.366 34.1276 118.786 33.8449 119.142 33.6403C118.716 33.1827 118.352 32.6309 118.045 31.9848C117.738 31.3388 117.587 30.7035 117.587 30.0736C117.587 29.6483 117.676 29.2257 117.853 28.8003C118.031 28.375 118.304 27.9982 118.67 27.6671C119.037 27.336 119.487 27.0695 120.023 26.8649C120.56 26.6603 121.185 26.558 121.9 26.558C123.123 26.558 124.118 26.8299 124.884 27.3737C125.649 27.9174 126.032 28.6981 126.032 29.7183C126.032 30.2109 125.946 30.6793 125.776 31.1207C125.606 31.5622 125.38 31.9794 125.099 32.3698C124.819 32.7601 124.495 33.1316 124.129 33.4788C123.762 33.8261 123.377 34.1464 122.967 34.4344C124.14 36.0495 125.749 37.7643 127.789 39.5813C127.924 39.3928 128.078 39.0779 128.248 38.6364C128.417 38.195 128.563 37.6889 128.682 37.1263C128.8 36.5637 128.876 35.9661 128.911 35.3362C128.946 34.7063 128.895 34.1087 128.757 33.5461C128.485 33.495 128.248 33.4169 128.043 33.3146C127.838 33.2123 127.625 33.0858 127.404 32.9297V31.9606H133.221V32.9297C132.763 33.2204 132.199 33.425 131.536 33.5434C131.45 34.2756 131.323 34.9997 131.153 35.7158C130.984 36.4318 130.784 37.1048 130.555 37.7347C130.326 38.3646 130.083 38.9272 129.827 39.4225C129.571 39.9178 129.318 40.3 129.062 40.5719C129.657 41.1022 130.261 41.5733 130.873 41.9851C131.485 42.397 132.089 42.7738 132.685 43.1157L133.987 43.7321V44.7012H129.547L129.55 44.6958ZM125.8 41.7402C125.256 41.2825 124.703 40.7549 124.142 40.16C123.582 39.5651 123.051 38.9622 122.546 38.3511C122.045 37.74 121.59 37.1451 121.182 36.5691C120.775 35.993 120.452 35.4977 120.212 35.0912C119.719 35.7023 119.36 36.2837 119.139 36.8356C118.918 37.3874 118.808 38.0361 118.808 38.7845C118.808 39.4117 118.91 39.9904 119.115 40.5181C119.32 41.0457 119.603 41.4979 119.969 41.8801C120.336 42.2624 120.765 42.5585 121.258 42.7711C121.751 42.9838 122.288 43.0888 122.865 43.0888C123.374 43.0888 123.897 42.9838 124.433 42.7711C124.97 42.5585 125.423 42.2139 125.797 41.7402H125.8ZM120.571 29.9013C120.571 30.1544 120.622 30.4316 120.724 30.7331C120.827 31.0373 120.959 31.3388 121.12 31.643C121.282 31.9471 121.46 32.2406 121.657 32.5259C121.851 32.8112 122.042 33.0643 122.231 33.2823C122.808 32.8462 123.234 32.3159 123.506 31.6914C123.778 31.0696 123.897 30.4047 123.865 29.6967C123.83 29.2257 123.681 28.8273 123.417 28.4989C123.153 28.1704 122.749 28.0062 122.204 28.0062C121.66 28.0062 121.231 28.2001 120.967 28.5877C120.703 28.9753 120.571 29.4114 120.571 29.8986V29.9013Z" fill="white"/>
<path d="M155.726 26.8595C155.691 27.624 155.632 28.4127 155.549 29.2284C155.462 30.044 155.352 30.8085 155.217 31.5218H154.171L152.999 28.515H148.227V34.7575H151.341L152.462 32.7951H153.279C153.362 33.6269 153.406 34.5529 153.406 35.5731C153.406 36.5933 153.362 37.5435 153.279 38.4265H152.462L151.341 36.413H148.227V43.0377H153.203L154.557 39.802H155.602C155.67 40.125 155.737 40.4884 155.807 40.8976C155.875 41.3041 155.931 41.7267 155.974 42.1601C156.018 42.5935 156.05 43.0296 156.077 43.471C156.101 43.9125 156.115 44.3217 156.115 44.6932H142.311V43.7241C142.599 43.5706 142.922 43.428 143.281 43.2907C143.639 43.1561 144.011 43.0538 144.405 42.9838V28.5635C144.065 28.4962 143.704 28.3966 143.321 28.27C142.939 28.1435 142.602 27.9955 142.313 27.8232V26.8541H155.735L155.726 26.8595Z" fill="white"/>
<path d="M164.425 41.9178C164.425 41.4764 164.269 41.0941 163.953 40.7711C163.638 40.4481 163.247 40.152 162.781 39.8801C162.312 39.6082 161.802 39.3363 161.25 39.0644C160.697 38.7926 160.188 38.4749 159.719 38.1088C159.249 37.7427 158.859 37.3147 158.546 36.8221C158.231 36.3295 158.074 35.7265 158.074 35.0132C158.074 34.5044 158.193 34.0414 158.433 33.6242C158.67 33.2069 158.993 32.857 159.403 32.5663C159.81 32.2782 160.301 32.0521 160.87 31.8906C161.438 31.7291 162.056 31.6483 162.719 31.6483C163.638 31.6483 164.492 31.721 165.282 31.8637C166.072 32.0091 166.765 32.2083 167.36 32.4613C167.293 33.005 167.156 33.5865 166.953 34.2056C166.749 34.8248 166.555 35.39 166.366 35.8988H165.498L164.428 33.3012C164.223 33.2177 164.01 33.1612 163.789 33.1343C163.568 33.11 163.32 33.0966 163.048 33.0966C162.538 33.0966 162.15 33.2446 161.886 33.5434C161.622 33.8395 161.49 34.176 161.49 34.5502C161.49 34.9755 161.646 35.3443 161.961 35.6592C162.277 35.9742 162.667 36.2676 163.134 36.5395C163.603 36.8114 164.112 37.0832 164.665 37.3551C165.218 37.627 165.727 37.9366 166.196 38.2865C166.662 38.6337 167.053 39.0456 167.369 39.5221C167.684 39.9985 167.84 40.5665 167.84 41.2287C167.84 42.3997 167.363 43.323 166.412 43.9933C165.46 44.6635 164.182 45 162.584 45C161.767 45 160.926 44.9139 160.058 44.7443C159.19 44.5747 158.441 44.3378 157.813 44.031C157.845 43.4199 157.991 42.8008 158.247 42.1709C158.503 41.5437 158.775 40.9811 159.063 40.4885H159.931L161.182 43.2665C161.368 43.4011 161.578 43.4818 161.808 43.5087C162.037 43.533 162.255 43.5464 162.457 43.5464C162.951 43.5464 163.401 43.4011 163.81 43.113C164.217 42.825 164.422 42.4239 164.422 41.9151L164.425 41.9178Z" fill="white"/>
<path d="M180.116 42.6312C179.997 42.9704 179.801 43.2799 179.528 43.5599C179.256 43.8398 178.93 44.0902 178.547 44.3109C178.164 44.5316 177.73 44.7012 177.245 44.8197C176.76 44.9381 176.253 44.9973 175.728 44.9973C174.606 44.9973 173.639 44.8412 172.833 44.5263C172.024 44.2113 171.358 43.7618 170.83 43.1749C170.301 42.5881 169.911 41.8855 169.657 41.0591C169.401 40.2354 169.274 39.3229 169.274 38.3215C169.274 36.1653 169.865 34.5125 171.048 33.3658C172.229 32.219 173.911 31.6457 176.086 31.6457C176.919 31.6457 177.685 31.7345 178.383 31.9122C179.081 32.0898 179.658 32.2998 180.119 32.5367C180.084 32.8247 180.038 33.145 179.979 33.4923C179.919 33.8395 179.852 34.1895 179.774 34.5367C179.698 34.884 179.607 35.2258 179.507 35.5569C179.404 35.888 179.302 36.1653 179.2 36.386H177.949L176.876 33.355C176.757 33.2689 176.628 33.2069 176.493 33.1639C176.356 33.1208 176.154 33.0993 175.881 33.0993C175.439 33.0993 175.056 33.18 174.733 33.3415C174.41 33.5031 174.135 33.7776 173.903 34.1706C173.674 34.561 173.504 35.0805 173.393 35.7238C173.283 36.3699 173.226 37.1667 173.226 38.1196C173.226 38.8168 173.302 39.4575 173.455 40.0443C173.609 40.6311 173.841 41.1399 174.156 41.5733C174.472 42.0067 174.865 42.3458 175.342 42.5935C175.819 42.8412 176.38 42.9623 177.027 42.9623C177.623 42.9623 178.14 42.8761 178.582 42.7066C179.024 42.537 179.399 42.3324 179.704 42.0955L180.111 42.6312H180.116Z" fill="white"/>
<path d="M196.724 44.6958H189.963V43.7268C190.168 43.6083 190.378 43.498 190.602 43.3957C190.823 43.2934 191.079 43.1992 191.367 43.1157V37.9554C191.367 36.491 191.227 35.4143 190.947 34.7251C190.667 34.036 190.117 33.6915 189.303 33.6915C188.623 33.6915 188.044 33.9257 187.567 34.394C187.09 34.8624 186.75 35.4035 186.545 36.0146V43.1157C186.817 43.183 187.06 43.2611 187.273 43.3445C187.486 43.4307 187.71 43.5572 187.949 43.7268V44.6958H181.189V43.7268C181.717 43.4549 182.278 43.2503 182.874 43.113V27.624L180.936 27.4194V26.4503C181.192 26.348 181.518 26.2458 181.917 26.1435C182.316 26.0412 182.736 25.9523 183.178 25.877C183.62 25.8016 184.062 25.7316 184.504 25.6724C184.947 25.6132 185.337 25.5674 185.677 25.5324H186.545V34.5259H186.569C186.739 34.1356 186.968 33.7668 187.259 33.4169C187.548 33.0696 187.877 32.7628 188.241 32.499C188.607 32.2352 189.001 32.0279 189.427 31.8745C189.853 31.721 190.303 31.6456 190.78 31.6456C191.459 31.6456 192.068 31.7264 192.605 31.8879C193.141 32.0494 193.586 32.3348 193.944 32.7439C194.303 33.1531 194.573 33.7022 194.761 34.3914C194.95 35.0805 195.042 35.9526 195.042 37.0079V43.1103C195.33 43.1776 195.618 43.2557 195.91 43.3391C196.198 43.4253 196.47 43.5518 196.726 43.7214V44.6905L196.724 44.6958Z" fill="white"/>
<path d="M204.735 44.6958H197.694V43.7268C198.255 43.4549 198.818 43.2503 199.379 43.113V27.624L197.441 27.4194V26.4503C197.662 26.348 197.969 26.2458 198.36 26.1435C198.751 26.0412 199.171 25.9523 199.624 25.877C200.074 25.8016 200.524 25.7316 200.977 25.6724C201.427 25.6132 201.832 25.5674 202.19 25.5324H203.058V43.1103C203.619 43.2476 204.182 43.4495 204.743 43.7214V44.6905L204.735 44.6958Z" fill="white"/>
<path d="M217.644 42.5558C217.507 42.8438 217.291 43.1372 216.994 43.436C216.698 43.7348 216.331 43.996 215.897 44.2248C215.463 44.4536 214.962 44.642 214.393 44.7847C213.824 44.9273 213.207 45 212.544 45C211.49 45 210.555 44.8439 209.738 44.5289C208.921 44.214 208.242 43.7645 207.697 43.1776C207.153 42.5908 206.74 41.8909 206.46 41.0753C206.18 40.2596 206.04 39.3417 206.04 38.3242C206.04 36.1492 206.608 34.4937 207.749 33.355C208.889 32.2163 210.468 31.6483 212.493 31.6483C213.361 31.6483 214.172 31.7668 214.93 32.0064C215.687 32.2432 216.315 32.6336 216.817 33.1773C217.318 33.7211 217.666 34.4344 217.862 35.3174C218.059 36.2003 218.046 37.2797 217.825 38.553H209.991C210.007 39.8935 210.352 40.9649 211.024 41.7617C211.695 42.5612 212.687 42.9596 213.997 42.9596C214.558 42.9596 215.14 42.8734 215.744 42.7039C216.347 42.5343 216.819 42.3135 217.159 42.0417L217.644 42.5504V42.5558ZM212.374 33.1046C212.037 33.1046 211.735 33.1639 211.474 33.2823C211.212 33.4008 210.983 33.6188 210.789 33.9311C210.595 34.246 210.439 34.6686 210.32 35.2043C210.202 35.74 210.118 36.4156 210.067 37.2286H214.148C214.266 35.9042 214.191 34.884 213.921 34.1706C213.649 33.4573 213.134 33.102 212.374 33.102V33.1046Z" fill="white"/>
<path d="M116.597 13.9896V12.178H192.659V13.9896H116.597Z" fill="#C0DC6D"/>
</g>
<defs>
<clipPath id="clip0_5232_162802">
<rect width="218" height="45" fill="white"/>
</clipPath>
</defs>
</svg>
