<svg width="32" height="32" viewBox="0 0 32 32" fill="none" xmlns="http://www.w3.org/2000/svg">
<path d="M3.38295 19.1623L17.163 3.32749C19.4462 0.703902 23.4239 0.427928 26.0475 2.71108C28.671 4.99424 28.947 8.97194 26.6639 11.5955L24.5985 13.9689C23.5786 13.5568 22.464 13.3299 21.2964 13.3299C16.4258 13.3299 12.4774 17.2783 12.4774 22.1489M3.38295 19.1623C1.0998 21.7858 1.37578 25.7635 3.99937 28.0467C7.25122 30.8766 11.1589 29.4124 13.6514 26.5483C12.9046 25.2534 12.4774 23.751 12.4774 22.1489M3.38295 19.1623L10.962 10.4531C12.3481 12.8898 13.5823 14.5391 15.1464 15.8281C13.5 17.4303 12.4774 19.6702 12.4774 22.1489" stroke="#518E93" stroke-width="1.5"/>
<path d="M22.9922 4.48436C20.7197 3.8981 19.3417 5.48157 18.6527 6.27331" stroke="#518E93" stroke-width="1.5" stroke-linecap="round"/>
<path d="M30.1145 22.1549C30.1145 27.0255 26.1661 30.9739 21.2956 30.9739C16.425 30.9739 12.4766 27.0255 12.4766 22.1549C12.4766 17.2843 16.425 13.3359 21.2956 13.3359C26.1661 13.3359 30.1145 17.2843 30.1145 22.1549Z" stroke="#518E93" stroke-width="1.5"/>
<path d="M15.3359 23.75L27.2618 20.5545" stroke="#518E93" stroke-width="1.5" stroke-linecap="round"/>
</svg>
