<svg width="32" height="32" viewBox="0 0 32 32" fill="none" xmlns="http://www.w3.org/2000/svg">
<path d="M11 29H21" stroke="#518E93" stroke-width="1.5" stroke-linecap="round" stroke-linejoin="round"/>
<path d="M16 25V18" stroke="#518E93" stroke-width="1.5" stroke-linecap="round" stroke-linejoin="round"/>
<path d="M12 14L16 18L20 14" stroke="#518E93" stroke-width="1.5" stroke-linecap="round" stroke-linejoin="round"/>
<path d="M9.83761 20.8778C8.6471 19.9521 7.68288 18.7676 7.01801 17.4141C6.35313 16.0605 6.00504 14.5733 6.00011 13.0653C5.97511 7.64031 10.3376 3.12781 15.7626 3.00281C17.8622 2.95304 19.9242 3.56556 21.6561 4.75352C23.388 5.94147 24.7019 7.64454 25.4115 9.6212C26.1211 11.5979 26.1904 13.7478 25.6094 15.766C25.0285 17.7842 23.827 19.5683 22.1751 20.8653C21.8102 21.1474 21.5146 21.5091 21.311 21.9229C21.1073 22.3367 21.001 22.7916 21.0001 23.2528V24.0028C21.0001 24.268 20.8948 24.5224 20.7072 24.7099C20.5197 24.8975 20.2653 25.0028 20.0001 25.0028H12.0001C11.7349 25.0028 11.4805 24.8975 11.293 24.7099C11.1055 24.5224 11.0001 24.268 11.0001 24.0028V23.2528C10.997 22.7951 10.8909 22.3439 10.6896 21.9328C10.4884 21.5216 10.1972 21.1611 9.83761 20.8778Z" stroke="#518E93" stroke-width="1.5" stroke-linecap="round" stroke-linejoin="round"/>
</svg>
