<svg width="32" height="32" viewBox="0 0 32 32" fill="none" xmlns="http://www.w3.org/2000/svg">
<path d="M12.6693 3.33594V2.58594H11.9193V3.33594H12.6693ZM19.3359 3.33594H20.0859V2.58594H19.3359V3.33594ZM12.6693 12.6693V13.4193H13.4193V12.6693H12.6693ZM3.33594 12.6693V11.9193H2.58594V12.6693H3.33594ZM3.33594 19.3359H2.58594V20.0859H3.33594V19.3359ZM12.6693 19.3359H13.4193V18.5859H12.6693V19.3359ZM12.6693 28.6693H11.9193V29.4193H12.6693V28.6693ZM19.3359 28.6693V29.4193H20.0859V28.6693H19.3359ZM19.3359 19.3359V18.5859H18.5859V19.3359H19.3359ZM28.6693 19.3359V20.0859H29.4193V19.3359H28.6693ZM28.6693 12.6693H29.4193V11.9193H28.6693V12.6693ZM19.3359 12.6693H18.5859V13.4193H19.3359V12.6693ZM12.6693 4.08594H19.3359V2.58594H12.6693V4.08594ZM13.4193 12.6693V3.33594H11.9193V12.6693H13.4193ZM3.33594 13.4193H12.6693V11.9193H3.33594V13.4193ZM4.08594 19.3359V12.6693H2.58594V19.3359H4.08594ZM12.6693 18.5859H3.33594V20.0859H12.6693V18.5859ZM13.4193 28.6693V19.3359H11.9193V28.6693H13.4193ZM19.3359 27.9193H12.6693V29.4193H19.3359V27.9193ZM18.5859 19.3359V28.6693H20.0859V19.3359H18.5859ZM28.6693 18.5859H19.3359V20.0859H28.6693V18.5859ZM27.9193 12.6693V19.3359H29.4193V12.6693H27.9193ZM19.3359 13.4193H28.6693V11.9193H19.3359V13.4193ZM18.5859 3.33594V12.6693H20.0859V3.33594H18.5859Z" fill="#518E93"/>
</svg>
