<svg width="32" height="32" viewBox="0 0 32 32" fill="none" xmlns="http://www.w3.org/2000/svg">
<path d="M7.00332 3.60518V3.60518C6.64766 3.60518 6.46983 3.60518 6.31981 3.61708C4.45826 3.76475 2.97988 5.24313 2.83221 7.10468C2.82031 7.2547 2.82031 7.43253 2.82031 7.78818V15.9076C2.82031 16.6189 2.82031 16.9746 2.84411 17.2746C3.13946 20.9977 6.0962 23.9545 9.81932 24.2498C10.1193 24.2736 10.475 24.2736 11.1863 24.2736V24.2736M7.00332 3.60518C7.00332 4.55642 7.75244 5.32755 8.67652 5.32755C9.60061 5.32755 10.3497 4.55642 10.3497 3.60518C10.3497 2.65394 9.60061 1.88281 8.67652 1.88281C7.75244 1.88281 7.00332 2.65394 7.00332 3.60518ZM16.2059 3.60518C16.2059 4.55642 15.4568 5.32755 14.5327 5.32755C13.6086 5.32755 12.8595 4.55642 12.8595 3.60518C12.8595 2.65394 13.6086 1.88281 14.5327 1.88281C15.4568 1.88281 16.2059 2.65394 16.2059 3.60518ZM16.2059 3.60518V3.60518C18.0541 3.60518 19.5523 5.10342 19.5523 6.95159V15.9076C19.5523 16.6189 19.5523 16.9746 19.5285 17.2746C19.2332 20.9977 16.2764 23.9545 12.5533 24.2498C12.2533 24.2736 11.8976 24.2736 11.1863 24.2736V24.2736M11.1863 24.2736C11.1863 32.8855 25.4085 33.7466 25.4085 24.2736V17.3841" stroke="#518E93" stroke-width="1.5"/>
<path d="M28.233 15.0579C28.233 16.6173 26.9689 17.8814 25.4095 17.8814C23.8501 17.8814 22.5859 16.6173 22.5859 15.0579C22.5859 13.4985 23.8501 12.2344 25.4095 12.2344C26.9689 12.2344 28.233 13.4985 28.233 15.0579Z" stroke="#518E93" stroke-width="1.5"/>
</svg>
