<svg width="32" height="32" viewBox="0 0 32 32" fill="none" xmlns="http://www.w3.org/2000/svg">
<path d="M16 20C18.2091 20 20 18.2091 20 16C20 13.7909 18.2091 12 16 12C13.7909 12 12 13.7909 12 16C12 18.2091 13.7909 20 16 20Z" stroke="#518E93" stroke-width="1.5" stroke-linecap="round" stroke-linejoin="round"/>
<path d="M9.63774 22.3656C8.81652 21.5453 8.16271 20.5731 7.71274 19.5031C7.24241 18.3962 7 17.2058 7 16.0031C7 14.8004 7.24241 13.6101 7.71274 12.5031C8.16271 11.4332 8.81652 10.4609 9.63774 9.64062" stroke="#518E93" stroke-width="1.5" stroke-linecap="round" stroke-linejoin="round"/>
<path d="M22.3594 9.64062C23.1806 10.4609 23.8344 11.4332 24.2844 12.5031C24.7547 13.6101 24.9971 14.8004 24.9971 16.0031C24.9971 17.2058 24.7547 18.3962 24.2844 19.5031C23.8344 20.5731 23.1806 21.5453 22.3594 22.3656" stroke="#518E93" stroke-width="1.5" stroke-linecap="round" stroke-linejoin="round"/>
<path d="M6.1001 25.9016C4.82466 24.6238 3.80625 23.1131 3.1001 21.4516C2.37402 19.7263 2 17.8734 2 16.0016C2 14.1298 2.37402 12.2768 3.1001 10.5516C3.80625 8.88999 4.82466 7.37935 6.1001 6.10156" stroke="#518E93" stroke-width="1.5" stroke-linecap="round" stroke-linejoin="round"/>
<path d="M25.8984 6.10156C27.1739 7.37935 28.1923 8.88999 28.8984 10.5516C29.6245 12.2768 29.9985 14.1298 29.9985 16.0016C29.9985 17.8734 29.6245 19.7263 28.8984 21.4516C28.1923 23.1131 27.1739 24.6238 25.8984 25.9016" stroke="#518E93" stroke-width="1.5" stroke-linecap="round" stroke-linejoin="round"/>
</svg>
