<svg width="638" height="371" viewBox="0 0 638 371" fill="none" xmlns="http://www.w3.org/2000/svg">
<rect width="638" height="371" fill="#D7D7D7"/>
<g clip-path="url(#clip0_1624_431457)">
<rect width="1440" height="1802" transform="translate(-742 -976)" fill="white"/>
<g clip-path="url(#clip1_1624_431457)">
<path d="M638 -42.3438H0V383.096H638V-42.3438Z" fill="white"/>
<path d="M494.027 228.906C490.488 224.87 489.474 220.032 489.063 214.821C488.918 212.983 486.663 211.356 486.367 209.474C485.759 205.628 482.334 202.379 483.988 198.042C484.199 197.489 483.497 196.585 482.013 194.889C481.66 195.754 481.547 196.984 480.905 197.413C479.356 198.448 477.402 198.001 477.746 196.014C478.494 191.702 475.583 189.409 473.552 186.525C472.485 185.008 471.685 183.305 470.618 181.428C469.983 182.158 469.072 183.204 467.844 184.613C465.796 184.347 463.414 184.26 463.295 188.124C463.261 189.21 461.421 190.258 460.37 191.286C458.61 193.012 456.816 194.703 455.045 196.415C454.63 196.817 454.323 197.452 453.834 197.638C450.675 198.838 450.23 200.78 450.78 204.114C451.343 207.526 451.242 211.409 448.509 214.314C447.794 215.076 446.679 215.613 445.655 215.838C445.373 215.9 444.657 214.5 444.32 213.694C442.311 208.903 440.276 204.123 438.415 199.272C437.559 197.042 436.869 194.701 436.502 192.349C436.185 190.323 436.435 188.207 436.435 186.045C434.621 186.323 433.214 186.768 431.849 186.669C430.932 186.603 429.406 185.889 429.294 185.26C428.669 181.784 426.063 180.125 423.59 178.259C423.168 177.943 422.95 177.355 422.393 177.656C420.264 177.247 418.137 176.839 415.26 176.286C412.17 178.659 406.292 177.146 404.696 172.504C402.234 174.372 399.584 174.985 397.07 172.883C395.092 171.228 393.39 169.243 391.566 167.405C391.773 167.118 391.979 166.829 392.186 166.54H387.228C389.245 169.021 390.876 171.097 392.587 173.105C393.766 174.489 395.732 174.925 395.709 177.621C395.689 179.916 400.176 180.201 402.028 178.055C402.672 177.307 403.159 176.419 403.459 175.974C406.026 178.126 408.364 180.063 410.676 182.029C412.537 183.611 412.149 185.182 410.608 186.734C410.052 187.291 409.089 187.844 409.05 188.448C408.665 194.226 403.312 194.68 399.866 197.122C397.937 198.49 395.79 199.554 393.75 200.768C390.392 202.767 385.746 201.714 383.087 205.7C382.073 207.221 378.955 205.055 379.393 202.45C380.41 196.443 376.335 192.709 373.869 188.218C372.759 186.197 371.791 184.097 370.703 182.062C369.781 180.336 368.776 178.654 367.819 176.947C367.065 175.597 366.381 174.202 365.562 172.892C365.096 172.148 364.523 171.391 363.818 170.895C362.428 169.913 360.912 169.106 358.423 167.612C360.485 170.544 361.935 172.784 363.573 174.879C365.06 176.781 367.209 178.351 365.564 181.245C365.335 181.651 365.429 182.566 365.741 182.906C369.965 187.473 371.077 193.636 374.044 198.829C375.074 200.631 377.053 201.911 377.98 203.744C381.653 210.994 387.588 212.194 393.966 206.778C394.124 206.643 394.393 206.638 394.824 206.507C395.661 207.46 396.558 208.483 397.359 209.392C395.512 213.853 394.227 218.518 391.766 222.442C389.472 226.097 386.274 229.411 382.86 232.094C375.523 237.862 372.871 246.626 375.429 255.66C376.691 260.114 378.375 265.06 375.289 269.683C374.982 270.145 374.612 270.897 374.227 270.925C370.139 271.237 369.233 275.423 366.457 277.348C365.679 277.887 365.716 279.877 365.713 281.203C365.711 283.041 366.312 284.914 366.097 286.703C365.968 287.775 364.853 288.792 364.03 289.696C363.449 290.331 361.967 290.777 361.997 291.235C362.247 295.155 359.402 297.764 358.072 300.99C357.613 302.103 356.67 303.04 355.858 303.98C354.763 305.249 353.518 306.39 352.46 307.689C351.451 308.928 345.071 310.715 343.44 310.541C342.194 310.408 340.398 310.656 339.659 311.473C337.615 313.726 335.715 312.606 334.096 311.447C332.295 310.155 330.884 308.315 332.753 306.31C331.625 303.68 330.65 301.218 329.514 298.833C328.913 297.571 327.764 296.529 327.339 295.231C326.644 293.103 326.369 290.841 325.862 288.649C325.114 285.411 325.008 281.779 323.398 279.039C320.106 273.431 319.388 268.332 323.519 262.958C326.367 259.256 323.4 255.566 323.233 251.876C323.134 249.733 322.852 247.427 321.941 245.536C320.98 243.537 319.268 241.86 317.72 240.196C315.967 238.312 314.336 236.901 316.417 233.87C317.559 232.206 317.256 229.386 317.128 227.114C317.089 226.444 315.49 225.572 314.471 225.306C311.643 224.569 308.3 224.826 307.814 220.636C307.763 220.195 306.284 219.58 305.508 219.633C304.031 219.736 302.326 219.892 301.177 220.691C298.224 222.74 295.203 223.266 291.668 222.821C290.039 222.616 287.733 223.215 286.636 224.335C284.629 226.384 282.936 225.902 281.612 224.264C277.561 219.248 273.755 214.029 269.864 208.885C269.598 208.534 269.458 207.864 269.162 207.797C265.496 207.003 267.691 204.984 268.329 203.237C267.405 202.466 266.526 201.732 265.195 200.621C270.915 197.822 267.916 192.909 268.341 188.666C268.754 184.533 268.923 180.084 270.644 176.46C272.144 173.3 275.489 170.895 278.336 168.541C280.259 166.953 281.094 165.328 280.935 162.898C280.759 160.191 281.284 158.249 284.751 157.556C286.267 157.253 287.256 154.316 288.518 152.526C289.883 153.024 291.142 153.612 292.466 153.921C293.269 154.11 294.462 154.213 294.983 153.77C299.631 149.807 305.354 149.644 310.957 149.036C312.762 148.841 314.593 148.552 316.385 148.68C317.536 148.763 319.564 149.477 319.599 150.009C319.732 152.065 322.171 154.667 318.181 156.111C318.22 156.459 318.257 156.806 318.296 157.155C320.372 157.976 322.466 158.75 324.515 159.633C326.656 160.555 328.755 161.572 330.865 162.563C332.267 163.222 333.655 163.906 335.057 164.583C335.594 162.795 335.786 161.26 336.491 160.014C337.658 157.951 339.129 157.809 341.43 159.029C344.048 160.42 346.374 162.758 349.831 162.458C350.857 162.368 351.985 163.458 352.132 163.534C354.557 163.068 356.367 162.157 357.808 162.561C360.852 163.415 362.309 162.137 363.05 159.603C363.809 157.003 364.254 154.311 364.454 151.216C360.726 152.646 357.491 149.314 353.784 151.264C352.85 151.755 349.806 149.782 348.838 148.247C347.828 146.645 348.097 144.206 347.945 142.122C347.913 141.693 348.494 141.218 348.854 140.672C347.149 140.424 345.676 140.21 344.291 140.008C343.307 141.154 342.354 142.257 341.2 143.602C341.93 144.153 342.866 144.86 343.701 145.488C343.066 146.498 342.625 148.024 341.866 148.203C340.762 148.465 338.743 148.141 338.314 147.386C336.589 144.341 335.545 140.906 333.795 137.879C332.928 136.376 330.962 135.55 329.693 134.228C327.835 132.294 326.165 130.18 324.391 128.163C324.033 127.755 323.568 127.44 322.925 126.887C322.384 127.702 321.652 128.312 321.606 128.969C321.478 130.825 326.408 136.206 328.005 137.165C330.221 138.494 332.072 140.431 334.079 142.106C333.843 142.418 333.607 142.73 333.371 143.04C332.471 142.801 331.574 142.565 331.07 142.432C329.886 144.837 328.766 147.106 327.47 149.736C326.094 148.901 324.85 148.148 323.607 147.395C323.701 147.129 323.792 146.861 323.887 146.594C325.075 146.454 326.263 146.317 327.541 146.168C328.863 142.462 325.644 141.28 323.827 139.506C321.377 137.113 318.66 134.995 316.059 132.759C316.206 132.351 316.353 131.943 316.499 131.534C314.687 132.427 312.877 133.317 310.72 134.38C309.454 134.072 307.644 133.631 305.836 133.191C306.013 133.579 306.189 133.964 306.364 134.352C304.4 136.587 302.535 138.918 300.433 141.016C299.314 142.133 297.699 142.505 298.949 144.816C299.367 145.589 297.435 147.473 296.889 148.965C295.822 151.879 293.801 150.548 291.959 150.312C290.355 150.105 288.515 153.423 287.091 149.97C286.948 149.626 286.242 149.16 286.024 149.259C282.443 150.876 281.812 147.889 280.745 145.81C280.403 145.144 280.339 143.788 280.763 143.366C283.014 141.119 282.392 138.512 282.05 135.896C281.745 133.556 282.482 131.936 285.127 132.094C286.85 132.197 288.547 132.672 290.268 132.902C291.86 133.115 293.466 133.228 295.26 133.402C295.579 131.348 296.524 129.079 296.056 127.151C295.641 125.437 293.654 124.106 292.37 122.601C291.824 121.963 291.296 121.309 290.759 120.664C291.395 120.281 292.037 119.904 292.665 119.51C293.897 118.736 295.122 117.952 296.228 117.249C297.967 116.563 299.704 116.136 301.149 115.239C302.799 114.213 304.187 112.77 306.472 110.852C306.226 106.579 311.159 107.405 314.82 105.783C314.524 104.557 314.513 103.105 313.854 102.058C311.7 98.6346 311.799 98.0976 315.827 96.7254C315.593 96.1425 315.222 95.5826 315.187 95.0043C315.164 94.5821 315.488 93.9809 315.843 93.7468C316.112 93.5724 317.029 93.7927 317.059 93.9465C317.383 95.7318 317.633 97.5354 317.821 99.3413C317.991 100.959 317.649 102.804 318.342 104.126C318.702 104.814 320.812 104.555 322.122 104.782C325.781 105.413 328.642 102.26 332.749 103.139C335.667 103.763 335.502 99.3391 336.316 96.9709C336.722 95.7891 336.835 94.5041 337.11 93.1204C338.803 94.1553 339.939 94.8483 341.074 95.5413C341.386 95.3072 341.698 95.0732 342.01 94.8391C339.714 92.7991 338.952 90.8096 342.772 88.547C337.326 88.5355 335.387 85.6396 335.146 81.7385C335.057 80.2905 336.433 78.6888 337.319 77.2661C337.778 76.5272 338.649 76.0568 339.287 75.4166C340.26 74.4367 341.189 73.4156 342.644 71.8735C341.329 71.4857 339.721 70.4898 338.422 70.7996C337.445 71.0313 336.952 73.0048 336.089 74.0787C334.798 75.6873 333.634 77.6355 331.941 78.636C329.133 80.2951 328.041 82.8859 330.177 85.3229C332.721 88.2257 333.01 90.3942 329.808 93.219C327.842 94.9515 326.993 97.9094 325.424 100.165C324.96 100.831 323.747 100.975 322.879 101.358C322.586 100.617 322.327 99.8577 321.989 99.1371C321.085 97.1981 320.448 95.0158 319.101 93.4485C318.369 92.5949 316.353 92.4159 315.017 92.6178C313.297 92.8794 311.679 93.8248 310.002 94.4811C308.835 91.2915 307.733 88.6387 306.901 85.9034C306.134 83.3884 307.832 80.7013 310.624 79.6916C315.52 77.9201 318.367 74.3862 320.542 69.6981C322.008 66.5405 323.893 63.2476 328.392 62.6395C330.957 62.293 333.306 60.3631 336.029 59.007C334.99 57.6554 334.44 56.9394 333.203 55.3308H340.453V53.3505C343.311 52.3982 345.977 55.4892 348.682 53.3688C348.856 53.2311 349.728 53.5639 349.87 53.8691C352.15 58.7064 357.709 58.4126 361.302 61.1984C362.47 62.1048 364.126 62.3687 365.333 63.2407C366.253 63.9062 367.533 65.2234 367.368 65.9692C367.117 67.105 365.892 68.6402 364.842 68.8605C362.699 69.3103 360.393 68.9959 357.95 68.9959C358.085 72.0525 359.469 74.7717 362.02 76.3849C362.123 74.9737 362.226 73.5441 362.332 72.1144C363.688 72.7501 365.044 73.3857 366.399 74.0214C369.366 73.925 363.314 70.4852 367.613 69.822C369.545 69.5237 371.414 68.833 373.784 68.195C373.286 66.7104 372.513 64.4019 371.681 61.919C374.521 61.0126 376.267 61.5128 376.684 64.4225C377.01 66.6966 378.444 67.1532 379.722 65.6341C383.11 61.5977 387.802 61.8731 392.273 61.1938C393.977 60.9345 395.631 60.3654 397.728 59.8308C397.96 60.1291 398.55 60.8863 399.139 61.6413C399.364 61.6046 399.587 61.5656 399.811 61.5289C399.692 60.2232 399.573 58.9152 399.433 57.3961C404.87 56.3428 409.295 58.0202 412.711 62.7107C412.973 62.4009 413.237 62.0934 413.498 61.7836C412.789 60.627 412.122 59.4407 411.362 58.3163C409.768 55.9573 407.274 53.8025 410.865 50.9387C411.658 50.3054 411.349 48.4375 411.945 47.3612C412.588 46.2001 413.666 44.5387 414.62 44.4928C415.65 44.4423 417.362 45.8123 417.722 46.9069C418.802 50.1929 419.371 53.6465 420.126 57.0358C420.202 57.3731 420.08 57.7885 420.229 58.073C422.351 62.0773 423.379 65.7443 416.795 67.2519C417.093 67.626 417.389 67.9977 417.687 68.3717C419.025 68.0987 420.58 68.1514 421.633 67.4539C422.579 66.8274 423.134 65.4322 423.586 64.2688C425.26 59.9707 425.217 59.9547 429.046 61.9947C428.553 59.101 427.786 58.6926 424.983 59.3833C424.256 59.5623 422.705 59.1561 422.629 58.7913C421.881 55.1679 421.349 51.4986 420.807 47.8339C420.768 47.5723 421.147 47.2488 421.521 46.6522C423.063 49.0639 424.547 51.3816 426.029 53.7016C426.366 53.5409 426.701 53.378 427.038 53.2174C426.912 52.4303 426.403 51.2691 426.736 50.9295C427.488 50.1562 429.041 49.0754 429.587 49.3714C431.913 50.6427 433.992 52.366 436.711 53.6189C435.474 52.1847 434.173 50.801 433.024 49.298C432.264 48.3067 431.081 47.0124 431.271 46.1037C431.459 45.2111 433.074 44.2083 434.192 44.0155C436.164 43.6782 438.238 43.9214 440.624 43.9214C439.553 42.3335 438.867 41.3169 438.181 40.3004C439.36 39.6303 440.516 38.9098 441.723 38.2971C444.474 36.9042 447.656 37.5857 450.604 35.9105C452.77 34.6806 456.275 35.7912 459.182 35.8922C459.728 35.9106 460.269 36.0827 460.882 36.1951C461.095 35.1602 461.061 34.1688 461.496 33.4644C462.274 32.2 463.171 30.4055 464.321 30.1393C465.543 29.8571 467.482 30.7382 468.452 31.7456C470.005 33.3565 470.859 34.6622 473.44 32.9504C475.583 31.5299 482.502 34.3891 482.919 36.8927C483.178 38.4508 481.66 40.6285 480.384 42.0191C479.372 43.1229 477.489 43.3937 476.055 44.1532C475.266 44.5708 474.603 45.234 474.057 46.0005C484.734 42.7121 489.503 42.9141 500.174 47.3222C503.131 43.5956 507.274 42.7718 509.878 45.6792C510.577 46.4594 510.204 48.1988 510.401 50.3306C513.805 52.6552 516.542 52.7171 517.719 50.5601C521.998 50.9639 525.935 51.3357 530.456 51.7625C528.249 48.3227 530.158 47.1685 532.129 46.5489C535.962 47.2488 538.621 49.9726 542.524 49.0065C543.944 48.6555 545.88 49.4127 547.291 50.1906C550.812 52.1274 553.845 54.6975 558.532 52.9902C561.214 52.0126 564.245 53.0338 566.284 55.6888C567.165 56.8362 568.411 57.7058 569.409 58.626C574.024 54.2064 578.571 58.1556 583.295 57.6232C583.809 55.4364 585.289 55.5557 587.847 55.4754C592.919 55.317 596.881 58.2979 601.559 58.8693C602.119 58.9381 602.828 59.1148 603.162 59.5026C605.578 62.3022 609.313 62.5936 612.217 64.4179C613.02 64.9228 613.484 65.9715 613.674 66.217C617.246 66.5704 620.451 66.832 623.619 67.3276C623.83 67.3598 624.179 69.5053 623.725 70.0652C623.096 70.8386 621.763 71.0405 620.527 71.5775C620.839 72.1167 621.346 72.6445 621.44 73.2411C621.564 74.0374 621.369 74.8842 621.311 75.7103C620.394 75.6322 619.384 75.7722 618.572 75.4349C616.053 74.3862 613.472 73.372 611.187 71.9171C609.738 70.9946 608.774 69.3103 607.088 67.3965V72.0226C606.074 72.7294 604.966 73.5027 603.775 74.3311C605.72 76.6259 610.499 76.7658 608.992 81.431C602.421 80.1207 599.636 81.7844 597.278 87.9136C595.103 87.3996 592.637 85.9654 591.001 86.6171C588.131 87.7599 584.142 88.5676 584.321 92.7188C585.812 94.1897 587.126 95.4862 588.622 96.9617C586.351 102.251 584.208 107.235 581.859 112.708C580.595 111.705 579.574 111.306 579.306 110.615C577.496 105.943 573.699 101.508 575.339 96.2664C576.41 92.845 579.01 89.7701 581.393 86.9338C583.504 84.4211 583.795 84.6161 581.921 82.1057C581.441 82.8033 580.948 83.3976 580.595 84.0654C579.744 85.674 579.019 85.4927 577.67 84.3866C576.459 83.3953 574.224 82.1103 573.355 82.5944C571.898 83.4045 570.643 85.3986 570.235 87.1128C569.108 91.8628 567.8 92.4686 563.903 89.6783C563.249 89.2101 561.916 89.5429 560.934 89.715C559.509 89.9651 558.135 90.6191 556.713 90.7178C554.52 90.8692 552.219 90.3116 550.126 90.7843C548.518 91.1469 546.898 92.3998 545.77 93.6849C544.659 94.947 544.265 96.8103 543.361 98.2927C542.537 99.6466 541.457 100.844 540.406 102.219C541.941 103.506 543.363 104.697 544.818 105.916C546.965 103.883 548.738 103.958 550.491 106.531C551.25 107.648 551.946 109.053 552.012 110.358C552.333 116.784 552.657 123.243 548.624 128.916C546.612 131.743 545.533 135.713 540.571 134.329C539.917 134.145 538.458 135.394 537.986 136.3C536.832 138.517 536.036 140.922 535.228 142.925C536.77 145.445 538.823 148.1 540.099 151.087C541.207 153.685 539.36 156.335 536.809 156.335C536.004 156.335 534.572 155.273 534.494 154.58C534.063 150.695 532.895 147.4 528.832 145.644C529.488 144.765 530.014 144.061 530.642 143.219C527.609 140.573 525.976 145.117 523.248 144.293C522.957 143.024 522.636 141.631 522.213 139.793C520.543 141.383 519.018 142.563 517.896 144.047C517.497 144.575 517.756 146.259 518.29 146.668C518.999 147.212 520.279 147.184 521.293 147.113C522.658 147.014 524.246 146.069 525.304 146.516C526.898 147.189 527.284 148.689 525.331 149.901C521.509 152.274 520.986 154.009 524.212 157.306C527.515 160.679 526.724 165.081 528.174 168.874C528.369 169.386 528.034 170.251 527.687 170.79C526.517 172.61 524.73 173.867 524.737 176.591C524.742 177.89 522.161 179.053 521.096 180.529C519.185 183.177 516.939 183.904 513.603 183.911C511.183 183.916 508.767 186.146 506.12 187.502C505.753 186.938 505.177 186.059 504.459 184.958C503.759 186.059 503.362 187.018 502.683 187.695C499.396 190.967 499.313 192.271 503.064 195.307C507.308 198.742 508.951 203.178 506.863 207.983C505.549 211.012 502.449 213.263 499.825 216.232C497.964 213.47 500.954 207.964 495.145 209.842C494.904 209.488 494.752 209.316 494.658 209.116C494.053 207.847 493.548 206.517 492.779 205.358C492.644 205.151 490.839 205.592 490.804 205.858C490.625 207.271 490.639 208.742 490.823 210.165C491.369 214.429 494.902 216.675 497.476 219.493C500.091 222.357 499.254 225.606 498.962 228.764C498.928 229.131 496.496 229.273 495.177 229.519C494.791 229.315 494.404 229.11 494.018 228.908L494.027 228.906ZM358.771 127.906C357.672 126.504 356.743 125.322 355.358 123.553C354.841 125.226 354.575 126.286 354.183 127.298C353.855 128.145 353.52 129.522 352.951 129.657C347.86 130.85 350.031 135.222 348.113 138.914C353.371 137.767 357.578 136.796 361.816 135.981C362.463 135.857 363.243 136.477 363.974 136.711C366.629 137.562 369.26 138.531 371.97 139.15C372.745 139.327 374.376 138.634 374.516 138.067C374.757 137.099 374.491 135.483 373.798 134.905C371.573 133.046 369.173 131.307 366.597 130.006C365.555 129.478 363.874 130.146 362.499 130.366C360.503 130.687 358.524 131.096 356.537 131.468C356.275 130.944 356.014 130.421 355.752 129.898C356.686 129.283 357.62 128.668 358.771 127.908V127.906ZM396.132 125.428C395.882 125.159 395.631 124.889 395.381 124.62C394.188 124.62 392.794 124.218 391.846 124.7C389.472 125.91 386.939 127.192 385.205 129.109C384.395 130.003 384.753 132.73 385.517 134.106C386.932 136.656 389.036 138.822 390.915 141.229C387.65 145.732 387.733 146.888 392.392 149.55C393.383 150.114 395.225 149.848 396.34 149.291C397.019 148.951 397.455 147.258 397.295 146.289C396.923 144.031 396.116 141.849 395.514 139.625C395.436 139.334 395.531 138.994 395.558 138.409C396.483 138.788 397.235 139.097 398.052 139.43C398.102 138.985 396.99 138.258 394.714 137.248C394.583 136.488 394.432 135.607 394.282 134.742C390.325 134.297 389.694 133.007 392.05 129.753C393.202 128.161 394.757 126.862 396.129 125.43L396.132 125.428ZM409.045 131.406C411.083 132.271 412.172 132.941 413.351 133.189C415.54 133.65 415.412 131.982 415.324 130.616C415.244 129.375 414.955 128.149 414.774 126.915C414.723 126.573 414.815 125.958 414.698 125.921C413.799 125.637 412.202 125.065 412.046 125.325C410.908 127.206 410.057 129.26 409.045 131.408V131.406ZM361.134 126.651C361.219 127.016 361.304 127.378 361.389 127.743C362.557 128.051 363.724 128.356 364.566 128.576C366.168 126.896 367.503 125.497 368.836 124.097C368.712 123.939 368.59 123.78 368.466 123.622C366.023 124.632 363.578 125.641 361.134 126.649V126.651Z" fill="#E1E3E9"/>
<path d="M139.502 58.7037C139.91 55.8927 141.899 54.151 144.141 53.0312C144.753 52.726 147.034 54.2795 147.463 55.3947C148.311 57.6068 148.403 60.1104 148.901 63.0499C150.833 61.7695 152.466 58.9355 153.099 62.8388C153.297 64.0481 153.129 65.3171 153.822 66.811C155.113 64.5208 156.118 61.9783 157.823 60.0576C158.591 59.1925 160.968 59.0594 162.212 59.5711C163.008 59.8993 163.226 61.9943 163.398 63.3345C163.492 64.0596 162.923 64.8628 162.691 65.643C162.306 66.9372 162.319 68.9543 161.498 69.3788C160.161 70.0695 158.289 69.7505 156.641 69.7964C155.889 69.8171 154.494 69.5463 154.469 69.6541C153.535 73.7801 150.775 71.6024 149.013 71.2605C149.697 72.5019 151.246 74.1059 150.908 74.9825C150.417 76.2538 148.389 76.8389 147.325 78.0001C143.26 82.4289 136.781 84.7649 135.157 91.3186C135.464 91.3186 135.772 91.3141 136.079 91.3141C136.85 92.7414 137.983 94.0953 138.307 95.619C138.733 97.6383 139.678 97.7967 141.468 97.8426C142.888 97.8793 144.434 98.6732 145.657 99.5177C148.385 101.402 150.759 103.96 154.687 103.272C156.036 106.696 152.104 110.604 155.529 113.779C159.621 113.688 160.874 111.478 160.461 107.696C160.234 105.608 160.512 103.765 162.868 102.409C163.756 101.897 163.641 99.1024 163.46 97.4043C163.216 95.1256 161.432 92.8332 164.536 90.9974C165.084 90.6715 164.776 88.8954 164.864 87.7871C164.988 86.1968 164.836 84.5217 165.297 83.037C165.967 80.8754 167.256 79.5375 169.658 81.472C170.207 81.9126 171.17 81.8001 171.904 82.0548C173.435 82.5895 175.038 83.0255 176.424 83.8287C177.849 84.6525 179.048 85.8641 179.441 86.9816C179.75 89.2305 179.285 92.7597 180.507 93.5009C185.123 96.2982 185.672 90.706 188.138 88.7004C189.778 91.3026 191.155 93.8635 192.912 96.1284C194.015 97.5511 190.751 98.5126 193.033 100.227C194.206 101.106 194.912 102.717 196.67 103.293C197.298 103.499 197.578 104.768 198.342 106.133C200.372 106.767 202.07 110.47 200.76 113.066C200.618 113.346 200.336 113.717 200.079 113.752C194.651 114.482 190.046 118.447 183.9 117.093C181.654 116.6 178.72 119.243 176.323 121.024C179.23 121.299 181.276 116.703 184.557 120.088C183.003 123.463 183.754 124.79 187.47 125.932C188.544 126.263 189.455 127.119 190.441 127.734C189.496 128.468 188.576 129.237 187.599 129.927C186.096 130.992 184.641 132.176 183.003 132.977C182.019 133.459 180.725 133.305 179.571 133.436C179.45 133.007 179.331 132.578 179.209 132.151L185.1 127.243C184.859 126.901 184.621 126.561 184.38 126.219C183.201 127.043 181.987 127.823 180.849 128.702C178.943 130.173 177.296 132.234 175.157 133.09C172.014 134.345 170.436 135.788 171.953 138.615C169.319 140.084 166.908 141.332 164.616 142.769C163.912 143.209 163.455 144.129 163.024 144.907C162.235 146.335 161.551 147.822 160.507 149.921C161.237 154.66 161.188 154.754 155.962 157.62C149.023 161.427 148.217 163.304 149.828 171.283C150.447 174.353 150.853 177.467 151.484 181.343C146.508 178.938 145.035 175.748 145.274 171.567C145.306 171.014 145.368 170.395 145.166 169.911C143.991 167.12 135.934 165.195 133.835 167.297C133.308 167.825 133.489 169.057 133.191 170.93C131.277 169.895 129.639 169.007 127.712 167.965C127.763 167.878 127.341 168.605 126.785 169.56C125.998 169.004 125.207 168.444 124.418 167.884C124.214 167.956 123.929 167.965 123.81 168.109C120.841 171.73 116.303 174.53 116.374 179.856C116.425 183.613 116.886 187.52 118.13 191.018C118.575 192.268 121.894 193.159 123.817 193.023C125.53 192.902 127.85 191.502 128.611 190.01C129.921 187.438 131.5 186.121 134.267 186.366C136.084 186.527 136.898 187.569 136.361 189.496C135.466 192.707 134.652 195.942 133.925 198.71C137.32 199.384 139.931 199.903 142.746 200.463C142.195 203.274 141.654 205.383 141.388 207.526C140.803 212.228 143.384 214.16 148.052 213.545C149.89 213.302 151.968 214.903 154.269 215.794C154.889 211.672 158.972 209.876 162.264 207.595C163.471 206.757 166.534 207.2 167.874 208.217C171.76 211.168 175.476 213.111 180.365 210.699C181.287 210.245 182.625 210.635 183.233 211.413C184.736 213.187 186.153 215.043 187.766 216.714C189.393 218.396 191.212 219.892 193.015 221.533C196.225 218.362 198.484 221.831 200.613 223.603C205.346 227.543 206.14 231.207 204.183 234.893C205.578 235.276 207.042 235.733 208.533 236.063C209.127 236.194 209.792 236.111 210.409 236.022C212.983 235.65 214.945 236.302 217.003 238.199C218.432 239.517 221.079 239.462 223.13 240.171C225.168 240.873 227.386 241.424 229.084 242.654C231.591 244.471 234.583 246.403 234.798 249.806C234.922 251.75 233.881 253.955 232.844 255.74C231.116 258.721 228.958 261.45 227.028 264.318C226.794 264.667 226.698 265.263 226.813 265.67C228.639 272.154 224.945 277.733 223.592 283.644C223.277 285.014 220.141 286.12 218.122 286.643C212.529 288.091 210.976 290.629 209.723 296.35C208.987 299.714 208.134 303.858 204.431 306.02C203.97 306.289 203.798 307.027 203.456 307.523C202.082 309.515 201.033 311.968 199.182 313.304C198.106 314.079 195.731 313.053 193.976 312.842C194.33 315.307 198.594 317.686 195.617 320.463C193.527 322.411 190.152 322.985 187.092 324.281C186.616 328.332 184.952 329.72 182.1 328.444C181.996 328.625 181.758 328.885 181.81 328.976C184.339 333.38 183.91 336.57 179.925 339.966C178.115 341.51 177.972 342.247 180.232 343.351C181.003 343.727 181.856 345.17 181.71 345.946C181.345 347.883 180.597 349.801 179.7 351.573C177.486 355.946 177.417 355.912 177.92 359.604C180.762 361.254 183.198 362.668 185.967 364.274C179.838 367.253 177.381 366.495 176.91 361.621C176.424 362.507 176.082 363.131 175.385 364.405C172.336 360.715 169.528 357.348 166.763 353.945C166.256 353.321 165.446 352.429 165.591 351.869C166.509 348.287 164.412 344.652 166.077 341.033C167.075 338.864 167.449 336.354 165.077 334.445C164.724 334.163 164.538 333.534 164.483 333.043C164.109 329.731 163.648 326.418 163.522 323.095C163.464 321.578 163.983 319.995 164.467 318.515C165.469 315.44 166.827 312.53 165.059 309.162C164.446 307.996 164.74 306.19 165.017 304.753C165.875 300.308 167.506 295.93 167.74 291.469C168.002 286.48 167.357 281.375 166.483 276.43C166.199 274.826 164.198 272.896 162.549 272.278C157.24 270.293 154.944 266.076 152.973 261.294C151.319 257.282 149.413 253.368 147.451 249.496C146.96 248.528 145.136 247.895 145.129 247.094C145.111 245.247 145.831 243.39 146.471 240.57C145.042 237.86 145.506 235.104 148.704 231.923C153.29 227.364 154.005 222.74 150.922 218.068C150.479 217.398 150.335 216.528 149.5 215.906C148.318 219.318 147.139 219.445 144.937 217.935C142.681 216.386 139.713 215.791 137.655 214.066C136.143 212.797 135.386 210.454 134.666 208.455C133.636 205.596 131.289 204.93 128.811 204.143C127.37 203.687 125.79 203.069 124.766 202.037C122.933 200.187 121.3 198.882 118.432 199.859C117.283 200.252 115.544 199.861 114.422 199.219C109.99 196.688 105.672 193.95 101.382 191.183C100.855 190.843 100.382 189.781 100.501 189.177C101.155 185.882 99.0399 183.849 97.4432 181.46C94.6237 177.245 91.0471 173.488 89.8059 168.27C89.4572 166.801 87.7343 165.659 86.64 164.367C86.2753 164.578 85.9128 164.789 85.548 165C88.8401 171.246 92.1299 177.49 95.6514 184.175C91.7216 184.927 90.0055 182.467 89.6408 180.528C88.9686 176.958 86.9635 175.104 83.536 173.89C85.7109 171.047 84.8666 168.94 82.7101 167.088C82.4555 166.868 82.1618 166.554 82.1183 166.248C81.4988 161.962 80.8083 157.739 75.7772 156.259C76.3531 153.864 71.9299 152.739 74.1415 149.873C74.2723 149.706 73.919 148.937 73.6047 148.687C68.8856 144.965 71.5629 140.281 72.1433 136.031C72.5884 132.773 73.9419 129.645 74.7953 126.435C75.011 125.625 75.1142 124.611 74.8183 123.869C73.0128 119.365 72.1616 114.645 71.3793 109.897C71.3174 109.523 70.9733 109.133 70.659 108.871C68.5897 107.152 67.2912 105.206 68.4795 102.928C66.9562 101.078 65.6784 99.4764 64.3455 97.9229C63.5655 97.0142 62.829 95.954 61.8334 95.3734C60.3904 94.5313 58.3738 94.4349 57.2405 93.3518C54.967 91.1787 52.8587 89.2649 49.3739 89.9005C48.86 89.9946 48.2153 88.6659 47.4927 88.4479C46.0244 88.0005 44.3887 84.6754 42.948 88.9092C42.3262 90.7381 40.0023 92.1172 38.2128 93.3541C37.4856 93.8566 36.1206 93.4367 35.0446 93.4367C34.8496 93.0787 34.6546 92.7184 34.4596 92.3604C36.1389 90.4834 37.8159 88.6063 39.6375 86.5709C39.1764 86.4791 38.4216 86.0936 37.8045 86.2519C36.1458 86.6741 31.1514 93.5468 31.101 95.3482C31.0895 95.736 31.5736 96.1422 31.5529 96.5254C31.4887 97.7806 31.4199 99.0656 31.0597 100.252C30.9771 100.527 29.1532 100.628 29.1165 100.511C28.7999 99.4626 28.7036 98.3474 28.4971 96.927C26.9531 98.1707 25.3518 99.8275 23.4316 100.931C19.5293 103.173 15.526 105.268 11.4103 107.079C10.2563 107.586 8.57242 106.884 6.14062 106.636C11.9976 101.441 20.4446 101.989 24.0258 94.0172C21.3072 94.3431 19.5316 94.9191 17.8729 94.6804C14.1243 94.1458 17.4164 91.89 17.0172 90.488C13.3741 90.7564 13.1447 90.449 13.5416 87.2088C13.6287 86.4928 12.6583 85.6461 12.3968 85.2216C13.631 83.5005 14.4202 81.6257 15.8311 80.6459C17.2948 79.6316 19.4306 79.65 21.1375 78.9065C22.3557 78.3741 23.3467 77.3277 24.269 75.8476C18.9718 79.5169 16.4368 76.5314 14.4064 72.137C17.9119 67.6004 23.2917 70.8428 28.4466 69.4293C27.2812 68.8602 26.71 68.4838 26.0791 68.2957C24.9756 67.9652 23.5968 68.0616 22.7709 67.4168C21.4495 66.3842 20.4882 64.8903 19.3733 63.5938C20.7681 63.1004 22.1331 62.3317 23.5624 62.1825C25.4436 61.9852 27.0518 61.8223 27.389 59.5275C27.4533 59.0892 27.6437 58.4329 27.9534 58.3044C30.4701 57.2512 33.0097 56.2438 35.586 55.3442C36.7446 54.9404 37.9926 54.766 39.2131 54.5893C39.8715 54.4929 41.0759 54.4241 41.1631 54.6581C42.4593 58.2241 44.2487 55.973 46.1322 54.8302C47.5936 58.4375 50.459 56.9987 53.0904 57.1915C60.0462 57.7009 66.8553 59.1099 73.2055 62.2101C73.919 62.5589 74.7173 62.7333 75.4446 62.9788C78.248 58.5546 81.8338 56.4411 84.7886 57.7721C83.8526 58.4582 83.0772 59.0273 82.3018 59.5964C82.4004 59.7891 82.4968 59.9796 82.5954 60.1723C83.6255 59.6354 84.7795 59.2476 85.6512 58.5201C86.3991 57.896 86.8258 56.884 87.6494 55.6724C89.6086 59.6629 92.6553 59.656 96.0024 58.8276C96.5186 58.6991 97.138 58.9057 97.6909 59.0365C101.144 59.8534 104.576 60.769 108.047 61.4987C110.446 62.0035 110.905 62.4923 110.674 65.8633C114.608 61.2784 116.287 66.9395 119.155 67.4856C120.137 62.5795 121.098 62.1917 125.124 64.787C127.458 66.2901 132.053 65.9183 134.452 64.1124C136.15 62.8342 137.809 62.4349 139.341 65.7623C140.546 63.9793 141.922 62.7539 142.085 61.3862C142.181 60.5808 140.348 59.5459 139.383 58.6142L139.497 58.7244L139.502 58.7037Z" fill="#E1E3E9"/>
<path d="M262.416 54.5266C260.283 61.2685 254.814 64.706 247.986 63.4302C245.194 62.907 243.969 64.3963 243.696 66.6841C243.398 69.1968 241.948 70.0482 239.794 70.3442C237.952 70.5966 236.112 70.9179 234.258 71.0418C231.695 71.2139 230.785 72.2373 230.145 74.9979C229.156 79.273 227.043 83.3277 225.047 87.2953C224.645 88.0916 221.98 88.7915 221.473 88.3234C218.05 85.1681 213.12 83.3346 212.732 77.4165C212.537 74.4242 210.58 71.581 209.717 68.5864C209.009 66.1265 209.174 63.7996 211.849 62.2186C212.973 61.5531 213.684 60.1877 214.583 59.1413C213.535 58.3244 212.493 57.496 211.431 56.6974C211.085 56.4358 210.681 56.25 209.896 55.791C211.195 55.0521 212.218 54.4716 213.241 53.891C213.271 53.5583 213.299 53.2278 213.328 52.8951C212.225 52.7781 211.121 52.6587 210.046 52.544C208.983 48.7921 208.157 44.7304 206.671 40.9281C205.003 36.6691 203.347 36.0633 198.765 36.575C195.076 36.988 191.286 37.7407 188.136 34.8356C187.687 34.4202 187.389 33.8397 186.76 32.9792C189.001 32.6808 190.802 32.4422 192.605 32.2035C192.61 31.7584 192.617 31.3132 192.621 30.868C191.316 30.7441 190.008 30.6133 188.701 30.494C187.244 30.3586 185.785 30.2324 184.328 30.1016C185.507 29.3099 186.647 28.454 187.873 27.7403C190.628 26.134 193.424 24.5965 196.641 22.7837C196.086 19.8441 197.554 18.0634 201.328 18.1965C202.078 18.2241 203.232 17.4645 203.567 16.7646C205.026 13.708 208.063 13.2514 210.713 12.4941C211.989 12.1316 213.666 13.178 215.324 13.63C216.79 11.8539 218.311 11.831 219.24 13.7815C219.61 14.5571 220.367 15.1468 220.95 15.8215C221.282 14.9679 221.622 14.1142 221.948 13.2583C222.065 12.9531 222.152 12.6364 222.441 11.7415C224.659 12.2945 226.841 12.8361 229.28 13.4442C229.404 12.2853 229.571 10.7295 229.741 9.14614C230.184 9.04746 230.608 8.80422 230.814 8.92813C234.017 10.8442 236.125 10.0801 239.106 7.53983C242.544 4.60717 247.587 4.75633 252.168 5.48146C252.774 5.57784 253.256 6.43606 254.32 7.43198C251.863 8.22825 249.994 8.83405 248.122 9.43986C248.142 9.72211 248.163 10.0044 248.183 10.2866C253.481 10.142 258.932 5.45851 264.089 9.44445C264.103 9.8139 264.119 10.1834 264.132 10.5505C261.678 10.9475 259.223 11.3445 256.993 11.7048C257.56 12.8957 258.17 14.1785 258.876 15.6677C260.42 14.9288 262.208 14.0729 263.995 13.217C264.265 13.4671 264.534 13.7172 264.805 13.9674C263.908 15.4543 263.011 16.9413 261.636 19.2177C263.093 18.5201 264.015 18.3342 264.552 17.7766C267.759 14.4538 271.988 14.167 276.145 13.9467C277.45 13.8779 278.81 14.8646 280.146 15.3671C279.152 16.3263 278.319 17.7123 277.131 18.1598C274.114 19.298 270.937 20.014 267.509 20.9892C268.491 21.556 269.313 22.0287 270.698 22.8273C268.897 24.0871 267.33 24.9981 266.011 26.1845C265.337 26.7903 265.11 27.894 264.681 28.7706C265.477 29.0093 266.305 29.1699 267.06 29.5026C268.17 29.9891 269.228 30.5949 270.306 31.1526C269.765 32.0796 269.42 33.243 268.643 33.8833C266.826 35.3794 266.94 36.7173 269.198 37.844C269.709 38.0987 270.182 38.4383 271.614 39.3172C268.553 42.0112 265.77 44.4574 263.015 46.8806C261.868 46.4974 260.808 46.1463 259.751 45.7929C259.473 46.0752 259.195 46.3551 258.918 46.6351C259.606 47.3487 260.322 48.0394 260.976 48.7852C262.104 50.068 263.249 51.3461 264.204 52.7505C264.291 52.879 263.04 53.9162 262.409 54.5312C261.141 53.8887 259.84 53.3012 258.61 52.5922C256.764 51.5251 255.454 51.6468 254.502 54.9833C257.452 54.8112 259.934 54.6689 262.414 54.5243L262.416 54.5266Z" fill="#E1E3E9"/>
<path d="M572.35 255.46C572.811 257.002 573.217 258.149 573.49 259.329C573.825 260.77 573.57 262.654 574.408 263.615C576.778 266.337 578.007 269.3 577.766 272.854C577.626 274.922 578.026 276.542 580.334 277.108C580.758 277.212 581.283 277.457 581.494 277.801C583.821 281.622 586.133 285.454 588.345 289.344C588.705 289.975 588.682 290.909 588.615 291.682C588.315 295.271 587.952 298.856 587.576 302.438C587.505 303.112 587.457 303.909 587.081 304.411C585.094 307.061 582.942 309.588 580.983 312.257C579.946 313.67 579.198 315.295 578.289 316.805C577.936 317.395 577.597 318.049 577.085 318.478C572.481 322.344 563.419 322.572 558.897 318.84C558.232 318.292 557.596 316.897 557.837 316.199C559.023 312.764 557.234 312.316 554.203 312.608C554.882 311.252 555.463 310.088 556.431 308.154C554.345 309.928 552.879 311.174 551.076 312.707C550.684 311.646 550.434 311.167 550.331 310.66C549.395 306.139 544.467 303.78 540.177 305.673C538.86 306.254 537.305 306.277 535.891 306.669C534.49 307.059 532.413 307.185 531.872 308.135C529.729 311.887 526.403 311.362 523.033 311.417C521.443 311.442 519.862 312.135 518.279 312.525C518.3 312.86 518.318 313.195 518.339 313.53C517.286 313.092 516.173 312.762 515.193 312.195C512.399 310.584 512.257 309.074 514.365 306.646C514.957 305.965 515.574 304.895 515.471 304.097C515.212 302.084 515.026 299.806 513.955 298.206C511.353 294.312 512.968 290.009 512.202 285.968C511.81 283.896 512.151 281.822 515.216 282.26C515.432 282.292 515.788 282.26 515.882 282.12C518.708 277.999 523.831 278.68 527.486 276.482C529.523 275.257 530.686 272.572 532.68 269.972C533.898 268.942 536.114 267.583 537.626 265.669C540.037 262.617 540.773 262.301 543.18 265.091C544.515 266.638 545.55 266.316 545.738 264.604C546.107 261.25 547.915 260.015 551.597 260.405C550.712 259.203 550.152 258.443 549.154 257.089C550.728 257.089 551.719 256.908 552.613 257.124C554.921 257.681 557.165 258.514 559.477 259.042C561.487 259.503 561.239 260.536 560.402 261.796C559.606 262.991 558.723 264.129 557.702 265.536C560.29 267.425 562.531 269.169 564.901 270.711C565.451 271.069 566.972 271.021 567.142 270.692C567.961 269.116 569 267.367 568.975 265.697C568.922 262.271 568.432 258.898 572.355 255.453L572.35 255.46Z" fill="#E1E3E9"/>
<path d="M183.724 78.6263C184.539 79.8746 185.353 81.123 186.588 83.0115C185.138 83.0115 184.101 83.319 183.438 82.9518C181.616 81.9445 179.804 80.8178 178.26 79.434C175.839 77.2678 173.823 74.5348 169.973 77.0774C169.526 77.3734 167.888 75.8612 166.801 75.1865C167.544 74.0896 168.104 72.7656 169.092 71.9762C169.81 71.4025 171.097 71.5516 172.125 71.3474C175.42 70.698 177.562 68.2817 177.39 65.427C177.239 62.9304 176.241 62.2947 171.933 62.0997C171.933 61.4663 172.183 60.654 171.884 60.2088C171.109 59.0454 169.333 57.0742 169.283 57.1132C165.397 60.1721 161.26 55.1031 157.305 57.5378C156.22 58.2055 154.013 58.0587 154.788 55.3715C154.889 55.0182 154.538 54.2953 154.192 54.0911C151.003 52.2002 152.554 49.4902 153.355 47.3469C154.286 44.8594 156.273 43.1888 159.503 44.3477C159.058 46.0687 158.649 47.6429 158.243 49.2171C158.526 49.3502 158.81 49.4856 159.092 49.6187C160.856 46.6126 161.423 41.7294 166.661 43.8979C170.132 45.3344 166.053 47.3538 166.495 48.5379C168.684 47.838 170.675 47.0325 172.745 46.5805C175.697 45.9333 176.321 48.2694 177.312 50.3002C177.767 51.2296 178.891 51.9547 179.868 52.471C181.194 53.1686 182.678 53.5679 184.089 54.1094C188.595 55.842 189.095 57.3978 185.808 61.923C187.753 62.9877 189.632 63.9859 191.481 65.0369C192.952 65.8699 195.686 66.953 195.594 67.5978C195.303 69.6195 194.014 71.531 192.89 73.3507C192.761 73.5572 191.024 73.135 190.405 72.5866C189.382 71.6802 188.808 70.2482 187.748 69.413C187.303 69.0619 186.104 69.6677 185.248 69.8375C185.468 70.7393 185.415 71.8982 185.97 72.4833C186.955 73.5251 189.051 74.0231 189.334 75.1039C189.781 76.8204 189.123 78.8259 188.836 81.6278C186.716 80.1133 185.411 79.1816 184.105 78.25C183.979 78.3762 183.855 78.5024 183.729 78.6286L183.724 78.6263Z" fill="#E1E3E9"/>
<path d="M175.867 18.6155C170.042 19.5151 163.187 24.5634 159.943 15.4809C161.907 14.4116 163.607 13.1977 165.504 12.5689C166.507 12.2362 167.842 13.0279 169.039 13.1105C170.246 13.1954 172.159 13.496 172.563 12.8948C174.036 10.7033 175.899 10.8272 178.058 11.0039C179.03 11.0842 180.054 10.5542 181.439 10.2031C181.949 10.6804 182.866 11.5363 184.004 12.5988C185.94 8.95702 189.157 9.42515 192.32 9.65232C194.862 9.83361 197.448 9.72346 199.935 10.1801C201.199 10.4119 202.284 11.6074 203.452 12.3693C202.513 13.0393 201.658 14.0444 200.616 14.3106C198.501 14.8499 196.285 14.9899 194.108 15.2928C195.319 20.4697 191.132 24.4235 185.913 23.3771C184.681 23.1292 182.919 23.8177 181.88 24.6644C179.29 26.771 176.975 29.2172 174.408 31.661C175.635 33.5955 174.919 36.1862 171.698 36.5603C167.603 37.0353 163.375 36.8861 159.271 36.4134C157.977 36.2643 156.901 34.2128 156.266 33.5748C159.048 31.8653 161.037 30.2819 163.295 29.3342C167.289 27.6544 163.706 24.6828 164.777 22.0392C166.094 22.5418 167.296 23.0007 167.853 23.2119C169.409 22.2618 170.524 21.3784 171.79 20.8621C173.125 20.3159 174.603 20.1186 176.016 19.7675C175.968 19.3843 175.92 18.9987 175.871 18.6155H175.867Z" fill="#E1E3E9"/>
<path d="M111.008 48.6317C112.992 48.159 114.848 45.4351 117.023 48.2898C119.778 46.1488 120.418 49.1824 122.339 50.9218C121.409 46.2108 125.789 46.3439 127.393 44.0354C127.572 43.7784 129.077 44.4438 129.276 44.4989C128.319 46.9198 126.645 49.0838 126.996 50.8369C127.37 52.7002 129.668 54.1781 131.323 56.0437C130.82 56.2364 130.095 56.5164 129.372 56.7963C130.331 61.0049 130.198 61.1265 125.683 61.271C122.203 61.3835 118.661 62.1017 115.266 61.6497C111.742 61.1815 108.36 59.6326 104.919 58.5564C104.901 58.0401 104.882 57.5261 104.864 57.0097C106.715 56.4338 108.567 55.8578 110.418 55.2841C110.423 55.1487 110.425 55.0133 110.43 54.8779C109.191 54.8779 107.913 55.0707 106.732 54.8137C105.876 54.6278 105.146 53.8499 104.359 53.3359C105.066 52.776 105.747 52.177 106.486 51.6607C107.97 50.6212 109.485 49.623 110.985 48.6087L111.012 48.6317H111.008Z" fill="#E1E3E9"/>
<path d="M516.112 240.518C513.256 242.131 511.079 241.321 509.657 238.079C508.934 236.433 507.661 235.029 506.922 233.388C506.5 232.45 506.415 231.199 506.658 230.203C506.752 229.818 508.266 229.926 508.957 229.512C511.116 228.221 513.405 227.025 515.245 225.352C517.643 223.17 519.659 220.563 522.07 217.883C523.777 218.569 525.874 219.413 528.659 220.536C527.776 221.846 527.198 223.17 526.22 224.053C524.422 225.676 523.837 227.004 525.908 228.916C526.484 229.446 526.631 231.061 526.275 231.869C525.11 234.51 523.674 237.041 522.231 239.55C521.579 240.681 520.822 242.257 519.817 242.526C518.95 242.758 517.665 241.422 516.119 240.518H516.112Z" fill="#E1E3E9"/>
<path d="M554.719 241.739C557.619 239.729 560.021 237.868 562.634 236.381C563.361 235.968 564.767 236.521 565.779 236.875C569.28 238.098 572.744 239.429 576.272 240.135C577.227 241.363 578.234 242.552 579.122 243.825C580.374 245.624 582.57 246.781 582.223 249.698C582.122 250.553 584.451 251.643 585.58 252.715C586.286 253.387 586.835 254.227 587.454 254.991C586.47 255.356 585.499 255.987 584.499 256.038C581.459 256.192 579.656 254.321 578.126 251.919C576.249 248.97 574.983 248.929 572.996 251.66C571.544 253.654 570.085 254.436 567.75 252.853C566.843 252.24 565.435 252.366 564.256 252.16C563.526 252.031 562.799 251.91 562.069 251.786C562.271 251.077 562.25 250.012 562.716 249.716C565.153 248.167 563.879 246.508 562.601 245.491C561.032 244.241 559.004 243.561 557.153 242.68C556.366 242.306 555.524 242.045 554.723 241.739H554.719Z" fill="#E1E3E9"/>
<path d="M395.94 265.28C395.238 267.345 394.545 269.128 394.029 270.959C392.79 275.358 390.652 279.472 390.441 284.204C390.283 287.766 387.647 289.675 384.554 290.879C384.146 291.038 383.478 290.721 382.999 290.485C380.622 289.321 379.356 283.057 380.957 280.907C382.191 279.248 383.37 277.923 382.005 275.273C380.184 271.737 382.568 269.096 386.777 267.503C388.463 266.865 389.514 264.412 390.723 262.693C391.48 261.617 392.001 260.373 392.627 259.203C393.366 260.353 394.164 261.468 394.827 262.659C395.307 263.522 395.61 264.483 395.94 265.277V265.28Z" fill="#E1E3E9"/>
<path d="M295.056 97.4326C295.792 98.8944 296.354 100.097 296.992 101.256C298.325 103.679 298.935 106.534 301.557 108.199C302.11 108.551 302.418 110.301 302.041 110.921C300.507 113.443 298.502 115.233 295.111 115.185C293.202 115.157 291.28 116.181 288.389 117.011C289.772 114.918 290.63 113.62 291.004 113.055C290.901 110.767 290.825 109.127 290.741 107.224C291.798 106.754 292.892 106.267 294.248 105.664C292.007 103.748 289.979 102.017 287.969 100.301C289.671 97.1045 289.451 96.6134 285.641 95.3628C285.987 94.5573 286.322 93.7748 286.905 92.4141C287.515 93.6073 287.838 94.2407 288.387 95.3077C290.617 89.3529 293.074 94.6376 295.528 94.8694C295.34 95.8883 295.152 96.9094 295.054 97.4349L295.056 97.4326Z" fill="#E1E3E9"/>
<path d="M494.027 228.903C494.412 229.107 494.8 229.311 495.185 229.513C496.098 231.714 497.005 233.919 497.925 236.115C498.631 237.804 499.322 238.616 500.973 236.723C501.359 236.28 503.242 237.145 503.614 237.226C502.965 239.786 502.648 241.393 502.137 242.935C501.774 244.027 501.377 245.585 500.577 245.913C499.801 246.232 498.106 245.553 497.479 244.775C493.804 240.211 489.496 236.159 487.736 230.128C487.103 227.957 484.038 226.495 482.074 224.717C481.278 223.994 480.461 223.292 479.656 222.581C480.101 222.122 480.62 221.224 480.98 221.284C482.212 221.488 483.522 221.819 484.561 222.48C487.775 224.527 490.879 226.746 494.027 228.898V228.903Z" fill="#E1E3E9"/>
<path d="M410.92 34.814C409.434 35.4382 408.5 35.7709 407.619 36.2092C403.501 38.2653 399.167 40.0001 395.343 42.5059C389.36 46.4276 389.224 49.2019 394.003 54.0621C392.012 56.4555 388.548 55.9897 386.66 53.9015C383.131 49.9936 385.063 46.8865 387.093 43.2999C390.204 37.8086 395.361 36.4226 400.934 35.4336C402.34 35.1834 403.781 34.5134 404.951 33.6781C407.061 32.1682 408.729 32.4688 410.92 34.814Z" fill="#E1E3E9"/>
<path d="M322.481 22.939C324.353 21.9936 325.523 20.9564 326.691 20.961C327.501 20.9655 328.297 22.4089 329.114 23.196C330.146 24.1919 331.066 25.3829 332.266 26.1034C333.734 26.9869 335.507 27.3472 337.008 28.1893C337.538 28.4854 338.068 29.7429 337.845 30.1903C337.512 30.8627 336.565 31.5098 335.796 31.6268C334.525 31.8173 333.19 31.5764 332.291 31.5373C331.428 30.3647 330.703 29.3803 329.981 28.3959C329.175 29.6763 328.35 30.943 327.574 32.2418C327.138 32.9715 326.792 33.7563 326.406 34.5159C325.677 34.0501 324.72 33.7449 324.257 33.0909C322.901 31.1748 319.747 29.7888 322.58 26.7047C320.563 27.1865 318.937 28.0402 317.592 27.7189C316.782 27.5262 316.138 25.5458 315.936 24.286C315.812 23.5127 316.53 22.4525 317.159 21.8008C317.354 21.5989 318.476 22.4411 319.214 22.5764C320.522 22.8128 321.859 22.8725 322.479 22.9367L322.481 22.939Z" fill="#E1E3E9"/>
<path d="M111.005 48.6383C111.005 48.6383 110.975 48.6153 110.977 48.6153C107.711 49.9302 104.368 51.0959 101.195 52.6128C98.9928 53.666 97.1231 55.27 94.5789 53.2782C92.4384 51.6008 91.4726 50.1 94.2072 48.1885C94.3013 48.1243 94.393 48.0371 94.4481 47.9384C95.407 46.2334 96.0632 44.2164 97.4098 42.9152C98.4468 41.9147 100.349 41.8138 101.61 41.3984C103.969 42.2681 106.173 43.1057 108.397 43.8905C110.704 44.7051 111.847 46.1164 111.005 48.6406V48.6383Z" fill="#E1E3E9"/>
<path d="M562.633 144.256C562.199 145.605 561.231 146.973 561.548 147.912C563.298 153.139 558.07 156.338 552.692 154.261C552.745 155.113 552.793 155.877 552.825 156.37C551.463 156.694 550.082 157.442 548.925 157.182C547.59 156.884 546.457 155.695 544.422 154.358C546.927 152.868 549.09 151.583 551.254 150.296C551.449 150.546 551.642 150.794 551.837 151.044C552.183 149.984 552.532 148.924 552.864 147.907C556.714 147.944 557.797 146.399 557.531 141.649C557.476 140.681 557.487 139.63 557.815 138.749C557.978 138.313 558.974 137.902 559.522 137.978C560.031 138.049 560.648 138.701 560.871 139.24C561.557 140.899 562.075 142.625 562.633 144.254V144.256Z" fill="#E1E3E9"/>
<path d="M267.648 78.2224C265.135 77.5455 262.837 76.9259 260.343 76.2558C260.609 75.4229 260.997 74.2089 261.456 72.777C260.003 72.9216 258.93 73.0272 257.854 73.135C257.468 68.9448 258.242 68.5341 262.27 69.0366C265.023 69.3785 267.888 68.7888 270.706 68.658C272.344 68.5823 274.434 66.9622 275.184 70.0348C275.842 72.7243 275.367 74.8423 272.658 76.0562C270.937 76.8272 269.198 77.5569 267.648 78.2247V78.2224Z" fill="#E1E3E9"/>
<path d="M155.075 32.7751C155.171 37.4448 158.381 38.03 161.769 38.2778C163.157 38.3788 164.566 38.2778 165.963 38.2044C169.987 37.9979 170.565 38.7138 169.737 42.3716C165.332 42.3716 161.049 42.3831 156.768 42.367C154.726 42.3578 148.491 37.8418 148.392 35.8707C148.342 34.877 149.514 33.3052 150.503 32.9013C151.771 32.3827 153.412 32.7751 155.073 32.7751H155.075Z" fill="#E1E3E9"/>
<path d="M538.364 229.148C538.454 229.77 538.743 231.411 538.688 231.423C536.029 231.982 533.343 232.402 530.502 232.864C530.567 233.114 530.847 234.183 531.179 235.466C532.26 235.128 533.205 234.835 535.4 234.151C534.423 236.381 533.794 237.816 533.031 239.557C533.434 240.237 534.304 241.161 534.526 242.222C534.77 243.38 534.412 244.668 534.318 245.898C533.251 245.14 532.09 244.477 531.17 243.573C530.849 243.259 531.12 242.343 531.12 241.483C530.626 241.811 530.351 241.889 530.301 242.043C529.931 243.174 529.608 244.319 529.27 245.459C528.713 245.173 527.754 244.977 527.662 244.583C527.144 242.329 523.872 240.778 525.949 237.852C526.935 236.462 528.493 234.982 528.534 233.508C528.649 229.433 530.702 229.825 533.56 230.394C534.767 230.635 536.199 229.754 538.367 229.148H538.364Z" fill="#E1E3E9"/>
<path d="M617.2 325.227C618.333 325.931 619.912 326.383 620.32 327.338C620.627 328.054 619.602 329.548 618.877 330.465C616.319 333.717 613.731 336.955 610.953 340.018C609.877 341.205 608.12 342.79 606.947 342.591C605.725 342.382 604.128 340.305 603.999 338.924C603.882 337.646 605.199 335.826 606.395 334.915C609.248 332.739 612.49 331.076 615.385 328.946C616.241 328.318 616.457 326.821 617.195 325.227H617.2Z" fill="#E1E3E9"/>
<path d="M155.693 29.6992C154.484 28.4325 153.25 27.1888 152.071 25.8946C151.309 25.0593 149.862 23.9142 150.048 23.3199C150.738 21.1124 151.718 18.8612 153.168 17.1058C153.587 16.5963 156.159 17.3353 157.37 18.0994C161.566 20.7452 162.207 22.5741 161.064 26.0139C160.268 28.405 158.793 29.3917 155.696 29.6992H155.693Z" fill="#E1E3E9"/>
<path d="M132.104 40.6493C126.013 41.5465 121.058 42.4185 116.064 42.9509C113.836 43.1895 112.398 42.0674 113.545 39.534C113.781 39.0131 114.522 38.3477 115.004 38.3683C118.046 38.5083 120.234 37.3036 121.879 34.7564C122.187 34.2791 123.595 33.9005 123.976 34.1827C126.653 36.147 129.195 38.2972 132.102 40.6493H132.104Z" fill="#E1E3E9"/>
<path d="M193.606 124.265C192.925 119.807 194.317 117.576 199.493 114.742C199.862 115.828 200.209 116.849 200.553 117.856C204.513 118.65 206.041 122.503 203.85 126.902C202.535 124.945 199.183 127.198 198.321 123.845C198.259 123.607 195.375 124.095 193.606 124.265Z" fill="#E1E3E9"/>
<path d="M623.273 328.662C621.617 328.398 619.908 324.093 622.023 321.624C624.235 319.042 623.856 317.067 622.349 314.577C621.869 313.785 621.94 312.638 621.899 311.646C621.895 311.545 623.184 311.151 623.319 311.325C623.904 312.071 624.363 312.948 624.719 313.836C625.714 316.33 626.866 318.613 630.048 318.873C630.908 321.332 630.041 322.943 627.848 324.336C626.297 325.321 625.113 326.881 623.271 328.662H623.273Z" fill="#E1E3E9"/>
<path d="M519.187 251.995C516.042 250.776 512.791 254.53 509.463 250.815C508.568 249.817 505.872 250.595 504.101 250.159C502.954 249.877 501.986 248.874 500.938 248.192C501.919 247.364 502.943 245.794 503.876 245.845C507.067 246.017 510.277 246.563 513.381 247.353C515.579 247.913 517.616 249.099 519.724 250.005C519.545 250.668 519.366 251.332 519.187 251.997V251.995Z" fill="#E1E3E9"/>
<path d="M285.28 102.086C288.214 102.116 289.714 102.524 288.748 105.124C288.514 105.753 288.384 106.485 288.452 107.144C288.702 109.507 288.143 110.365 285.433 111.272C281.409 112.616 279.413 114.312 280.671 107.979C281.068 105.978 280.04 104.608 282.912 104.238C283.935 104.108 284.777 102.575 285.282 102.088L285.28 102.086Z" fill="#E1E3E9"/>
<path d="M132.161 46.7143C133.053 47.2972 133.863 47.8272 135.281 48.7543C135.024 47.2857 134.733 46.4458 134.774 45.622C134.808 44.9428 135.13 43.7954 135.517 43.7082C136.825 43.4099 138.234 43.3732 139.571 43.5246C139.846 43.5568 140.057 44.8166 140.168 45.5302C140.356 46.7395 140.702 48.0108 140.498 49.1696C140.264 50.5052 139.83 52.3203 138.876 52.8642C137.988 53.3713 135.756 52.9284 135.088 52.1092C133.877 50.6199 130.241 50.2642 132.156 46.712L132.161 46.7143Z" fill="#E1E3E9"/>
<path d="M140.609 184.937C142.11 184.397 143.594 183.45 145.113 183.392C150.6 183.181 154.916 186.502 159.532 188.771C161.197 189.59 160.94 190.903 159.073 191.747C156.269 193.014 154.679 192.431 153.321 189.411C152.108 186.715 146.388 184.593 142.883 185.538C142.268 185.703 141.656 185.882 141.041 186.054C140.898 185.683 140.754 185.311 140.612 184.939L140.609 184.937Z" fill="#E1E3E9"/>
<path d="M563.071 136.061C560.915 136.061 559.612 136.12 558.318 136.038C557.581 135.992 556.787 135.838 556.168 135.478C555.939 135.345 555.907 134.248 556.173 133.984C558.226 131.955 558.088 129.697 557.278 127.198C557.111 126.682 557.744 125.904 557.662 126.113C559.951 127.65 562.215 128.873 564.06 130.558C564.778 131.212 564.913 132.988 564.65 134.094C564.416 135.078 563.262 135.843 563.071 136.061Z" fill="#E1E3E9"/>
<path d="M525.892 38.2979C530.239 31.8658 530.87 39.2456 533.625 38.8394C533.355 39.5347 533.251 40.1038 533.114 40.113C529.657 40.3379 526.183 40.7028 522.74 40.5306C521.937 40.4916 521.019 38.6673 520.581 37.5039C520.411 37.0518 521.464 35.5465 521.877 35.5786C523.004 35.6658 524.107 36.2762 525.176 36.7742C525.415 36.8866 525.477 37.38 525.892 38.2979Z" fill="#E1E3E9"/>
<path d="M532.856 200.761C530.831 202.65 528.807 202.258 527.006 200.642C526.355 200.057 525.701 198.781 525.905 198.07C526.497 196.014 527.431 194.031 528.447 192.138C528.738 191.594 529.902 191.036 530.418 191.213C531.14 191.461 532.033 192.326 532.145 193.037C532.544 195.596 532.645 198.203 532.859 200.764L532.856 200.761Z" fill="#E1E3E9"/>
<path d="M538.905 220.987C538.146 220.125 537.375 219.287 536.65 218.413C536.001 217.63 535.402 216.804 534.734 215.939C533.755 216.604 532.94 217.16 532.126 217.713C531.825 217.513 531.527 217.314 531.227 217.114C532.059 215.698 532.871 214.268 533.803 212.921C533.84 212.871 535.023 213.612 535.801 214.06C537.127 212.912 538.607 210.753 540.844 212.871C542.922 214.838 542.179 217.688 538.907 220.99L538.905 220.987Z" fill="#E1E3E9"/>
<path d="M336.06 25.2747C334.126 24.7928 332.775 24.8594 332.206 24.2237C331.236 23.136 330.756 21.61 330.07 20.2676C331.321 19.9647 332.562 19.4507 333.821 19.4048C336.09 19.3222 338.371 19.4897 340.642 19.6182C341.263 19.6526 341.871 19.9165 342.486 20.0749C342.323 20.6922 342.36 21.6238 341.963 21.8762C339.892 23.198 337.708 24.3476 336.06 25.2747Z" fill="#E1E3E9"/>
<path d="M104.931 39.1492C104.144 38.3667 103.201 37.4305 102.258 36.4942C103.21 35.7094 104.059 34.7227 105.132 34.1789C107.401 33.0292 109.748 31.9874 112.155 31.1797C112.799 30.9617 114.46 31.712 114.476 32.0677C114.52 33.0797 113.843 35.0325 113.646 35.0095C110.817 34.6653 109.599 36.8453 107.881 38.3002C107.332 38.766 106.38 38.7568 104.931 39.1492Z" fill="#E1E3E9"/>
<path d="M555.972 118.698C554.687 113.62 553.606 109.345 552.562 105.221C553.187 104.84 553.432 104.576 553.572 104.622C554.852 105.049 558.018 111.481 557.885 112.755C557.805 113.542 558.351 114.4 558.635 115.219C559.055 116.44 559.491 117.654 559.917 118.87C558.516 118.808 557.116 118.746 555.969 118.696L555.972 118.698Z" fill="#E1E3E9"/>
<path d="M136.129 35.9036C136.904 35.6099 137.968 34.8618 138.987 34.9169C140.001 34.972 141.779 35.8027 141.8 36.3465C141.848 37.6109 141.421 39.4742 140.508 40.0915C137.227 42.3128 132.683 40.1741 132.118 36.3236C132.027 35.6971 132.662 34.9651 132.96 34.2812C133.88 34.7517 134.8 35.2221 136.129 35.9036Z" fill="#E1E3E9"/>
<path d="M159.156 193.269C160.333 193.136 161.512 193 162.37 192.904C162.914 191.812 163.171 190.277 164.013 189.82C165.963 188.762 169.803 191.206 171.953 194.524H159.227C159.202 194.106 159.179 193.687 159.156 193.269Z" fill="#E1E3E9"/>
<path d="M572.549 327.75C571.555 332.824 570.007 334.582 566.942 333.811C564.329 333.154 564.512 331.075 565.045 329.081C565.728 326.518 567.954 326.151 572.546 327.748L572.549 327.75Z" fill="#E1E3E9"/>
<path d="M143.166 51.6093C142.547 43.7636 145.481 41.7282 153.258 44.7687C149.675 47.1988 146.649 49.248 143.166 51.6093Z" fill="#E1E3E9"/>
<path d="M452.136 20.4169C451.03 20.7428 449.725 20.7979 448.855 21.4404C445.448 23.9577 443.673 22.216 442.156 19.2443C444.063 18.058 445.765 16.649 447.722 15.9399C448.58 15.6301 450.218 16.4861 451.014 17.2938C451.716 18.0052 451.741 19.3866 452.067 20.472L452.138 20.4147L452.136 20.4169Z" fill="#E1E3E9"/>
<path d="M135.05 24.1742C136.961 25.5533 138.718 26.5515 140.088 27.9352C140.678 28.5319 140.464 29.9248 140.616 30.9551C139.218 31.0079 137.762 31.3291 136.447 31.0239C135.474 30.799 134.603 29.8444 133.85 29.0573C133.063 28.2381 132.474 27.233 131.797 26.3083C132.733 25.6933 133.669 25.0806 135.052 24.1719L135.05 24.1742Z" fill="#E1E3E9"/>
<path d="M160.25 75.9413C158.722 76.9785 157.527 77.8757 156.244 78.6284C155.368 79.1424 154.372 79.4522 153.429 79.8538C152.902 78.5045 152.05 77.1758 151.97 75.8013C151.924 75.0165 152.98 73.6902 153.806 73.4171C156.437 72.5497 158.793 73.043 160.25 75.9436V75.9413Z" fill="#E1E3E9"/>
<path d="M452.064 20.4804C455.614 20.345 456.325 23.1079 457.63 25.7858C453.907 27.1787 451.119 25.779 448.07 24.1038C449.66 22.665 450.894 21.5475 452.131 20.4299C452.136 20.4254 452.064 20.4827 452.064 20.4827V20.4804Z" fill="#E1E3E9"/>
<path d="M461.472 30.2339C459.953 28.8387 458.182 27.712 458.338 27.26C458.856 25.7753 460.274 23.3245 460.985 23.4415C462.651 23.7146 464.11 25.2636 465.651 26.2962C464.406 27.4688 463.158 28.6437 461.469 30.2339H461.472Z" fill="#E1E3E9"/>
<path d="M450.984 211.422C455.006 213.528 455.515 215.952 455.07 218.558C454.926 219.398 453.813 220.465 452.966 220.66C452.386 220.794 450.918 219.658 450.856 218.994C450.647 216.757 450.89 214.481 450.984 211.424V211.422Z" fill="#E1E3E9"/>
<path d="M150.09 28.5341C148.488 29.8765 147.373 31.4461 146.625 31.2878C145.501 31.0492 143.905 29.631 143.868 28.658C143.831 27.7172 145.38 26.1729 146.476 25.9136C147.245 25.73 148.422 27.2537 150.092 28.5341H150.09Z" fill="#E1E3E9"/>
<path d="M544.672 155.82C545 157.394 545.454 158.615 545.447 159.831C545.441 161.002 544.956 162.17 544.681 163.34C544.048 162.583 543.435 161.81 542.782 161.073C540.554 158.572 540.641 158.232 544.67 155.82H544.672Z" fill="#E1E3E9"/>
<path d="M198.968 356.846C196.286 357.61 193.96 358.273 191.406 359V355.221C193.93 355.368 196.564 352.846 198.968 356.846Z" fill="#E1E3E9"/>
<path d="M528.123 177.096C528.548 178.214 529.229 179.31 529.319 180.456C529.399 181.49 528.906 182.606 528.479 183.606C528.417 183.753 526.949 183.659 526.765 183.326C526.201 182.3 525.623 181.093 525.666 179.981C525.703 179.003 526.568 178.055 527.066 177.094C527.419 177.094 527.77 177.094 528.123 177.094V177.096Z" fill="#E1E3E9"/>
<path d="M139.392 58.5937C138.85 59.5047 138.485 60.9435 137.724 61.2028C136.602 61.5837 135.193 61.1225 133.906 61.0215C134.097 60.0623 133.991 58.5684 134.544 58.2586C135.517 57.7148 136.896 57.7997 138.098 57.8249C138.57 57.8341 139.031 58.3917 139.502 58.7015C139.504 58.7038 139.392 58.5937 139.392 58.5937Z" fill="#E1E3E9"/>
<path d="M536.026 37.6314C538.295 37.6314 540.116 37.473 541.885 37.7025C542.686 37.8058 543.385 38.68 544.131 39.2032C543.456 39.7196 542.784 40.6627 542.103 40.6719C539.772 40.6971 537.187 40.9174 536.023 37.6314H536.026Z" fill="#E1E3E9"/>
<path d="M125.556 27.759C123.378 28.1835 121.201 28.608 119.024 29.0326C118.795 28.6539 118.565 28.273 118.336 27.8944C119.621 26.9421 120.791 25.5538 122.225 25.182C123.319 24.8998 124.746 25.9049 126.026 26.3386C125.87 26.8113 125.712 27.284 125.556 27.759Z" fill="#E1E3E9"/>
<path d="M528.366 208.408C527.159 210.935 525.955 213.461 524.438 216.644C523.544 214.548 524.432 211.628 527.102 207.883C527.524 208.057 527.946 208.234 528.368 208.408H528.366Z" fill="#E1E3E9"/>
<path d="M589.262 241.328C589.9 245.135 588.608 247.079 586.048 246.741C585.415 246.659 584.69 246.046 584.362 245.472C584.224 245.231 584.91 244.337 585.396 243.967C585.995 243.51 586.816 243.359 587.463 242.953C587.998 242.618 588.418 242.106 589.262 241.328Z" fill="#E1E3E9"/>
<path d="M507.689 188.742C509.797 190.906 508.992 192.648 507.425 194.073C507.033 194.429 505.266 194.137 505.11 193.749C504.149 191.356 505.445 189.896 507.686 188.742H507.689Z" fill="#E1E3E9"/>
<path d="M596.016 55.079C597.289 51.4626 598.851 50.1913 601.4 51.0747C601.87 51.2377 601.946 52.5457 602.203 53.3236C600.381 53.8399 598.558 54.3562 596.018 55.0767L596.016 55.079Z" fill="#E1E3E9"/>
<path d="M545.191 234.164C541.367 232.478 541.36 232.056 545.191 226.172V234.164Z" fill="#E1E3E9"/>
<path d="M124.964 29.5859C124.948 33.721 120.908 31.9656 119.61 34.2075C118.997 31.5778 120.781 30.0372 124.964 29.5859Z" fill="#E1E3E9"/>
<path d="M533.81 252.552C531.61 253.757 529.565 254.879 527.102 256.231C529.407 250.755 530.316 250.267 533.81 252.552Z" fill="#E1E3E9"/>
<path d="M591.702 242.248C590.587 240.213 589.614 238.434 588.492 236.383C592.833 236.665 593.922 238.632 591.702 242.248Z" fill="#E1E3E9"/>
<path d="M555.586 238.798C556.804 233.88 557.091 233.768 561.629 236.205C559.525 237.107 557.963 237.779 555.586 238.798Z" fill="#E1E3E9"/>
<path d="M610.305 279.623C614.471 278.189 615.609 279.035 615.205 283.23C613.491 281.968 612.08 280.929 610.305 279.623Z" fill="#E1E3E9"/>
<path d="M144.62 42.8609C144.288 41.9224 143.462 40.7773 143.746 40.0981C144.088 39.2858 145.327 38.556 146.274 38.4046C146.864 38.3105 148.172 39.3179 148.208 39.8893C148.272 40.938 147.635 42.028 147.288 43.1019C146.398 43.0216 145.508 42.9413 144.618 42.8632L144.62 42.8609Z" fill="#E1E3E9"/>
<path d="M143.725 20.3516C144.751 21.0767 145.774 21.7995 146.8 22.5247C145.976 23.1282 145.152 23.7317 144.329 24.3352C143.689 23.4448 143.049 22.5545 142.406 21.6641C142.847 21.2259 143.285 20.7899 143.725 20.3516Z" fill="#E1E3E9"/>
<path d="M537.159 206.192C535.397 205.382 534.055 204.765 532.711 204.147C533.167 203.498 533.557 202.355 534.09 202.284C536.09 202.022 537.304 202.952 537.159 206.192Z" fill="#E1E3E9"/>
<path d="M212.606 60.1373C211.016 60.3278 209.426 60.5182 206.82 60.8303C207.809 59.3709 208.22 58.134 208.784 58.0606C210.041 57.8976 211.374 58.313 212.677 58.492C212.654 59.0404 212.631 59.5889 212.608 60.1373H212.606Z" fill="#E1E3E9"/>
<path d="M168.479 67.8202C169.096 66.6476 169.711 65.475 170.328 64.3047C170.915 64.6833 172.049 65.3258 172.01 65.4039C171.457 66.5512 170.75 67.6251 170.078 68.7151C169.543 68.4168 169.011 68.1185 168.477 67.8202H168.479Z" fill="#E1E3E9"/>
<path d="M315.088 144.373C314.023 140.545 314.122 140.309 317.412 140.148C316.992 141.789 316.616 143.258 316.242 144.726C315.856 144.609 315.473 144.49 315.088 144.373Z" fill="#E1E3E9"/>
<path d="M528.578 203.07C529.651 203.968 530.727 204.862 531.801 205.76C531.732 206.026 531.663 206.294 531.597 206.561C530.519 206.561 529.199 206.937 528.436 206.446C527.784 206.028 527.773 204.615 527.477 203.642C527.844 203.451 528.211 203.261 528.578 203.07Z" fill="#E1E3E9"/>
<path d="M156.678 195.34C155.221 195.34 153.759 195.37 152.309 195.271C152.218 195.264 152.19 194.271 152.133 193.736C153.626 193.662 155.118 193.589 156.611 193.516C156.634 194.124 156.655 194.732 156.678 195.34Z" fill="#E1E3E9"/>
<ellipse cx="73.5786" cy="144.166" rx="5.03949" ry="5.04076" fill="#518E93"/>
<ellipse cx="180.414" cy="129.041" rx="5.03949" ry="5.04076" fill="#518E93"/>
<ellipse cx="290.274" cy="114.931" rx="5.03949" ry="5.04076" fill="#518E93"/>
<ellipse cx="170.336" cy="137.111" rx="5.03949" ry="5.04076" fill="#518E93"/>
</g>
</g>
<defs>
<clipPath id="clip0_1624_431457">
<rect width="1440" height="1802" fill="white" transform="translate(-742 -976)"/>
</clipPath>
<clipPath id="clip1_1624_431457">
<rect width="638" height="371" fill="white"/>
</clipPath>
</defs>
</svg>
